<?xml version="1.0" encoding="utf-8"?>
<svg version="1.1" xmlns:xlink="http://www.w3.org/1999/xlink" width="21px" height="26px" xmlns="http://www.w3.org/2000/svg">
  <g transform="matrix(1 0 0 1 -356 -434 )">
    <path d="M 13.9435992513021 6.46190856983418  L 10.43913671875 0.0203737484056124  L 6.93467415364583 6.46190856983418  C 5.37714801432292 9.32481294642857  7.32408440755209 12.9034433912628  10.43913671875 12.9034433912628  C 13.5541890299479 12.9034433912628  15.5011254231771 9.32481294642857  13.9435992513021 6.46190856983418  Z M 7.59417962239583 19.4223638977466  L 4.08971708984375 12.980829076318  L 0.585254557291666 19.4223638977466  C -0.972271582031251 22.285268274341  0.974664811197916 25.8638987191752  4.08971708984375 25.8638987191752  C 7.20476936848958 25.8638987191752  9.15170579427083 22.285268274341  7.59417962239583 19.4223638977466  Z M 20.4147454427083 19.4223638977466  L 16.9102829101563 12.980829076318  L 13.4058203776042 19.4223638977466  C 11.8482942382812 22.285268274341  13.7952306315104 25.8638987191752  16.9102829101563 25.8638987191752  C 20.0253351888021 25.8638987191752  21.9722716145833 22.285268274341  20.4147454427083 19.4223638977466  Z " fill-rule="nonzero" fill="#1296db" stroke="none" transform="matrix(1 0 0 1 356 434 )" />
  </g>
</svg>