<?xml version="1.0" encoding="utf-8"?>
<svg version="1.1" xmlns:xlink="http://www.w3.org/1999/xlink" width="11px" height="18px" xmlns="http://www.w3.org/2000/svg">
  <g transform="matrix(1 0 0 1 -418 -432 )">
    <path d="M 7.30379008401538 4.4736290098852  L 5.46811923363095 0.0141049027423471  L 3.63244836619544 4.4736290098852  C 2.81660134083582 6.45563973214286  3.83642516586062 8.93315311702806  5.46811923363095 8.93315311702806  C 7.09981330140129 8.93315311702806  8.11963712642609 6.45563973214286  7.30379008401538 4.4736290098852  Z M 3.97790361173115 13.4462519292092  L 2.14223276134673 8.98672782206633  L 0.306561910962301 13.4462519292092  C -0.509285114397322 15.4282626514668  0.51053871062748 17.905776036352  2.14223276134673 17.905776036352  C 3.77392681206597 17.905776036352  4.79375065414186 15.4282626514668  3.97790361173115 13.4462519292092  Z M 10.6934380890377 13.4462519292092  L 8.85776723865327 8.98672782206633  L 7.02209638826885 13.4462519292092  C 6.20624936290923 15.4282626514668  7.22607318793403 17.905776036352  8.85776723865327 17.905776036352  C 10.4894612893725 17.905776036352  11.5092851314484 15.4282626514668  10.6934380890377 13.4462519292092  Z " fill-rule="nonzero" fill="#1296db" stroke="none" transform="matrix(1 0 0 1 418 432 )" />
  </g>
</svg>