<?xml version="1.0" encoding="utf-8"?>
<svg version="1.1" xmlns:xlink="http://www.w3.org/1999/xlink" width="12px" height="12px" xmlns="http://www.w3.org/2000/svg">
  <g transform="matrix(1 0 0 1 -569 -48 )">
    <path d="M 575 48  C 578.36 48  581 50.64  581 54  C 581 57.36  578.36 60  575 60  C 571.64 60  569 57.36  569 54  C 569 50.64  571.64 48  575 48  Z " fill-rule="nonzero" fill="#ffffff" stroke="none" />
    <path d="M 575 48.5  C 578.08 48.5  580.5 50.92  580.5 54  C 580.5 57.08  578.08 59.5  575 59.5  C 571.92 59.5  569.5 57.08  569.5 54  C 569.5 50.92  571.92 48.5  575 48.5  Z " stroke-width="1" stroke="#d2e954" fill="none" />
  </g>
</svg>