<?xml version="1.0" encoding="utf-8"?>
<svg version="1.1" xmlns:xlink="http://www.w3.org/1999/xlink" width="12px" height="12px" xmlns="http://www.w3.org/2000/svg">
  <g transform="matrix(1 0 0 1 -185 -50 )">
    <path d="M 191 50  C 194.36 50  197 52.64  197 56  C 197 59.36  194.36 62  191 62  C 187.64 62  185 59.36  185 56  C 185 52.64  187.64 50  191 50  Z " fill-rule="nonzero" fill="#ffffff" stroke="none" />
    <path d="M 191 50.5  C 194.08 50.5  196.5 52.92  196.5 56  C 196.5 59.08  194.08 61.5  191 61.5  C 187.92 61.5  185.5 59.08  185.5 56  C 185.5 52.92  187.92 50.5  191 50.5  Z " stroke-width="1" stroke="#2aaec7" fill="none" />
  </g>
</svg>