<?xml version="1.0" encoding="utf-8"?>
<svg version="1.1" xmlns:xlink="http://www.w3.org/1999/xlink" width="13px" height="26px" xmlns="http://www.w3.org/2000/svg">
  <g transform="matrix(1 0 0 1 -597 -853 )">
    <path d="M 12.45875 19.51525  C 12.45875 22.6775  9.888 25.25  6.72575 25.25  C 3.56525 25.25  0.992749999999999 22.6775  0.992749999999999 19.517  C 0.992749999999999 17.58325  2.00075 15.765  3.63875 14.71325  L 3.63875 3.837  C 3.63875 2.13425  5.02475 0.75  6.72575 0.75  C 8.42675 0.75  9.81275 2.13425  9.81275 3.837  L 9.81275 14.7115  C 11.45075 15.76325  12.45875 17.58325  12.45875 19.51525  Z M 9 3.837  C 8.93075 2.62075  7.942 1.632  6.72575 1.632  C 5.5095 1.632  4.52075 2.62075  4.52075 3.837  L 4.52075 15.212  L 4.302 15.33975  C 2.783 16.2235  1.87475 17.78625  1.87475 19.517  C 1.87475 22.19275  4.05 24.368  6.72575 24.368  C 9.4015 24.368  11.57675 22.19275  11.57675 19.517  C 11.57675 17.78625  10.67025 16.22525  9.1495 15.33975  L 9 15.212  L 9 3.837  Z " fill-rule="nonzero" fill="#e2a34a" stroke="none" transform="matrix(1 0 0 1 597 853 )" />
  </g>
</svg>