<?xml version="1.0" encoding="utf-8"?>
<svg version="1.1" xmlns:xlink="http://www.w3.org/1999/xlink" width="12px" height="12px" xmlns="http://www.w3.org/2000/svg">
  <g transform="matrix(1 0 0 1 -450 -48 )">
    <path d="M 456 48  C 459.36 48  462 50.64  462 54  C 462 57.36  459.36 60  456 60  C 452.64 60  450 57.36  450 54  C 450 50.64  452.64 48  456 48  Z " fill-rule="nonzero" fill="#ffffff" stroke="none" />
    <path d="M 456 48.5  C 459.08 48.5  461.5 50.92  461.5 54  C 461.5 57.08  459.08 59.5  456 59.5  C 452.92 59.5  450.5 57.08  450.5 54  C 450.5 50.92  452.92 48.5  456 48.5  Z " stroke-width="1" stroke="#d9001b" fill="none" />
  </g>
</svg>