<?xml version="1.0" encoding="utf-8"?>
<svg version="1.1" xmlns:xlink="http://www.w3.org/1999/xlink" width="12px" height="12px" xmlns="http://www.w3.org/2000/svg">
  <g transform="matrix(1 0 0 1 -828 -48 )">
    <path d="M 834 48  C 837.36 48  840 50.64  840 54  C 840 57.36  837.36 60  834 60  C 830.64 60  828 57.36  828 54  C 828 50.64  830.64 48  834 48  Z " fill-rule="nonzero" fill="#ffffff" stroke="none" />
    <path d="M 834 48.5  C 837.08 48.5  839.5 50.92  839.5 54  C 839.5 57.08  837.08 59.5  834 59.5  C 830.92 59.5  828.5 57.08  828.5 54  C 828.5 50.92  830.92 48.5  834 48.5  Z " stroke-width="1" stroke="#04ff1d" fill="none" />
  </g>
</svg>