<?xml version="1.0" encoding="utf-8"?>
<svg version="1.1" xmlns:xlink="http://www.w3.org/1999/xlink" width="14px" height="15px" xmlns="http://www.w3.org/2000/svg">
  <g transform="matrix(1 0 0 1 -1389 -882 )">
    <path d="M 13.5727587953125 0.110379438476564  L 6.07056871257813 8.52765040039063  L 6.0542199615625 8.5205002406529  L 6.04773788171875 8.52765040039063  L 1.24408971039062 6.42032130580357  L 0.439691653515625 6.07672854561942  L 0.4272714446875 6.07140928571429  L 0.4272714446875 6.09068192940848  L 0.4272714446875 12.0619840938895  L 0.4272714446875 12.0812567375837  L 0.43967654828125 12.0673226206752  L 1.41803321734375 12.4877361439732  L 1.41803321734375 12.4845754338728  L 2.34621038640625 12.8907079422433  L 2.63489737328125 12.5664071114676  L 5.66435804101562 9.16324301897322  L 5.66435804101562 11.1548784130859  L 4.1744908121875 12.8285343966239  L 4.1744908121875 13.6615753069196  L 4.17724079171875 13.6584916831752  L 5.08755824335937 14.0568187695313  L 5.08755824335937 14.0645856389509  L 6.07832003078125 14.4903376890346  L 13.5727587953125 6.07140928571429  L 13.5727587953125 0.110379438476564  Z M 5.38713936742187 8.64160959193639  L 2.34619528117187 12.0576863176618  L 2.34619528117187 12.4438716343471  L 1.41801811210937 12.0497652755301  L 0.946004462265625 11.8460919545201  L 4.23701499484375 8.14738182407925  L 5.38713936742187 8.64160959193639  Z M 5.66434293578125 11.9879578759766  L 5.66434293578125 13.8601799316406  L 4.45485233429687 13.3466409674944  L 5.66434293578125 11.9879578759766  Z " fill-rule="nonzero" fill="#f59b00" stroke="none" transform="matrix(1 0 0 1 1389 882 )" />
  </g>
</svg>