<?xml version="1.0" encoding="utf-8"?>
<svg version="1.1" xmlns:xlink="http://www.w3.org/1999/xlink" width="13px" height="13px" xmlns="http://www.w3.org/2000/svg">
  <g transform="matrix(1 0 0 1 -525 -653 )">
    <path d="M 12.7017475728155 2.24990291262136  L 6.68077669902913 2.24990291262136  L 6.68077669902913 0.242912621359224  L 12.7017475728155 0.242912621359224  L 12.7017475728155 2.24990291262136  Z M 12.7017475728155 5.20135922330097  L 6.68077669902913 5.20135922330097  L 6.68077669902913 3.19436893203884  L 12.7017475728155 3.19436893203884  L 12.7017475728155 5.20135922330097  Z M 12.7017475728155 9.80563106796116  L 6.68077669902913 9.80563106796117  L 6.68077669902913 7.79864077669903  L 12.7017475728155 7.79864077669903  L 12.7017475728155 9.80563106796116  Z M 12.7017475728155 12.7570873786408  L 6.68077669902913 12.7570873786408  L 6.68077669902913 10.7500970873786  L 12.7017475728155 10.7500970873786  L 12.7017475728155 12.7570873786408  Z M 5.02796116504854 0.360970873786408  L 5.02796116504854 5.20135922330097  L 0.187572815533981 5.20135922330097  L 0.187572815533981 0.360970873786408  L 5.02796116504854 0.360970873786408  Z M 5.02796116504854 7.91669902912621  L 5.02796116504854 12.7570873786408  L 0.187572815533981 12.7570873786408  L 0.187572815533981 7.91669902912621  L 5.02796116504854 7.91669902912621  Z " fill-rule="nonzero" fill="#f59b00" stroke="none" transform="matrix(1 0 0 1 525 653 )" />
  </g>
</svg>