<?xml version="1.0" encoding="utf-8"?>
<svg version="1.1" xmlns:xlink="http://www.w3.org/1999/xlink" width="25px" height="21px" xmlns="http://www.w3.org/2000/svg">
  <g transform="matrix(1 0 0 1 -54 -1352 )">
    <path d="M 24.2370692773437 0.15453121386719  L 10.8403012724609 11.9387105605469  L 10.8111070742188 11.9287003369141  L 10.7995319316406 11.9387105605469  L 2.22158876855469 8.988449828125  L 0.785163666992187 8.50741996386719  L 0.762984722656249 8.499973  L 0.762984722656249 8.52695470117188  L 0.762984722656249 16.8867777314453  L 0.762984722656249 16.9137594326172  L 0.785136693359375 16.8942516689453  L 2.53220217382813 17.4828306015625  L 2.53220217382813 17.4784056074219  L 4.18966140429687 18.0469911191406  L 4.70517388085937 17.5929699560547  L 10.1149250732422 12.8285402265625  L 10.1149250732422 15.6168297783203  L 7.45444787890625 17.9599481552734  L 7.45444787890625 19.1262054296875  L 7.45935855664062 19.1218883564453  L 9.08492543457031 19.6795462773438  L 9.08492543457031 19.6904198945313  L 10.8541429121094 20.2864727646484  L 24.2370692773437 8.499973  L 24.2370692773437 0.15453121386719  Z M 9.61989172753906 12.0982534287109  L 4.18963443066406 16.8807608447266  L 4.18963443066406 17.4214202880859  L 2.53217520019531 16.8696713857422  L 2.53217520019531 16.868484203125  L 1.68929368261719 16.5845287363281  L 7.56609820507813 11.4063345537109  L 9.61989172753906 12.0982534287109  Z M 10.1148980996094 16.7831410263672  L 10.1148980996094 19.4042519042969  L 7.95509345410156 18.6852973544922  L 10.1148980996094 16.7831410263672  Z " fill-rule="nonzero" fill="#f59b00" stroke="none" transform="matrix(1 0 0 1 54 1352 )" />
  </g>
</svg>