<?xml version="1.0" encoding="utf-8"?>
<svg version="1.1" xmlns:xlink="http://www.w3.org/1999/xlink" width="19px" height="17px" xmlns="http://www.w3.org/2000/svg">
  <g transform="matrix(1 0 0 1 -101 -18 )">
    <path d="M 8.1861875 15.0638125  L 8.1875 15.0625  L 8.1875 16.375  L 5.5559375 13.75  L 8.1875 11.125  L 8.1875 12.4375  L 12.125 12.4375  C 14.3005457143845 12.4375001085362  16.0634245119257 10.6746213109949  16.0634245119257 8.50000010853616  C 16.0634245119257 7.26601666199692  15.4849324965372 6.10340111086282  14.500625 5.3591875  L 14.5150625 5.3408125  L 16.3656875 3.4901875  C 17.8393639731707 4.73709067778762  18.6892982001513 6.56958840368517  18.6892982001513 8.50000024636372  C 18.6892982001513 12.1243689171283  15.7511668709159 15.0625002463637  12.1267982001513 15.0625002463637  C 12.1261988000876 15.0625002463637  12.1255994000412 15.0625001642425  12.125 15.0625  L 8.1861875 15.0638125  Z M 10.8138125 1.9375  L 10.8125 1.9375  L 10.8125 0.625  L 13.4991875 3.25  L 10.8125 5.875  L 10.8125 4.5625  L 6.875 4.5625  C 4.70034250002884 4.5624999998327  2.93746370248759 6.32537879737395  2.93746370248759 8.4999999998327  C 2.93746370248759 9.73474918497472  3.5166701502042 10.8979942068525  4.502 11.642125  L 2.6343125 13.5085  C 1.16156426438035 12.2615995373941  0.312252801827531 10.429701560138  0.312252801827531 8.49999999534423  C 0.312252801827531 4.87563132457965  3.25038413106295 1.93749999534423  6.87475280182753 1.93749999534423  L 10.8138125 1.9375  Z " fill-rule="nonzero" fill="#f59b00" stroke="none" transform="matrix(1 0 0 1 101 18 )" />
  </g>
</svg>