<?xml version="1.0" encoding="utf-8"?>
<svg version="1.1" xmlns:xlink="http://www.w3.org/1999/xlink" width="21px" height="105px" xmlns="http://www.w3.org/2000/svg">
  <g transform="matrix(1 0 0 1 -99 -233 )">
    <path d="M 119.5 237.2  C 119.5 237.2  119.5 333.8  119.5 333.8  C 119.5 336.04  114.68 337.5  109.5 337.5  C 104.32 337.5  99.5 336.04  99.5 333.8  C 99.5 333.8  99.5 237.2  99.5 237.2  C 99.5 234.96  104.32 233.5  109.5 233.5  C 114.68 233.5  119.5 234.96  119.5 237.2  Z " fill-rule="nonzero" fill="#6e5096" stroke="none" />
    <path d="M 99.5 237.66  C 99.5 235.3304  103.9 233.5  109.5 233.5  C 115.1 233.5  119.5 235.3304  119.5 237.66  C 119.5 237.66  119.5 333.34  119.5 333.34  C 119.5 335.6696  115.1 337.5  109.5 337.5  C 103.9 337.5  99.5 335.6696  99.5 333.34  C 99.5 333.34  99.5 237.66  99.5 237.66  Z " stroke-width="1" stroke="#ffffff" fill="none" />
    <path d="M 119.5 237.2  C 119.5 239.272  115.1 240.9  109.5 240.9  C 103.9 240.9  99.5 239.272  99.5 237.2  " stroke-width="1" stroke="#ffffff" fill="none" />
  </g>
</svg>