<?xml version="1.0" encoding="utf-8"?>
<svg version="1.1" xmlns:xlink="http://www.w3.org/1999/xlink" width="16px" height="31px" xmlns="http://www.w3.org/2000/svg">
  <g transform="matrix(1 0 0 1 -378 -6 )">
    <path d="M 393.5 9.2  C 393.5 9.2  393.5 33.8  393.5 33.8  C 393.5 35.48  389.78 36.5  386 36.5  C 382.22 36.5  378.5 35.48  378.5 33.8  C 378.5 33.8  378.5 9.2  378.5 9.2  C 378.5 7.52  382.22 6.5  386 6.5  C 389.78 6.5  393.5 7.52  393.5 9.2  Z " fill-rule="nonzero" fill="#6e5096" stroke="none" />
    <path d="M 378.5 9.59677419354839  C 378.5 7.86258064516129  381.8 6.5  386 6.5  C 390.2 6.5  393.5 7.86258064516129  393.5 9.59677419354839  C 393.5 9.59677419354839  393.5 33.4032258064516  393.5 33.4032258064516  C 393.5 35.1374193548387  390.2 36.5  386 36.5  C 381.8 36.5  378.5 35.1374193548387  378.5 33.4032258064516  C 378.5 33.4032258064516  378.5 9.59677419354839  378.5 9.59677419354839  Z " stroke-width="1" stroke="#ffffff" fill="none" />
    <path d="M 393.5 9.2  C 393.5 10.712  390.2 11.9  386 11.9  C 381.8 11.9  378.5 10.712  378.5 9.2  " stroke-width="1" stroke="#ffffff" fill="none" />
  </g>
</svg>