<?xml version="1.0" encoding="utf-8"?>
<svg version="1.1" xmlns:xlink="http://www.w3.org/1999/xlink" width="15px" height="31px" xmlns="http://www.w3.org/2000/svg">
  <g transform="matrix(1 0 0 1 -272 -6 )">
    <path d="M 286.5 9  C 286.5 9  286.5 34  286.5 34  C 286.5 35.568  283 36.5  279.5 36.5  C 276 36.5  272.5 35.568  272.5 34  C 272.5 34  272.5 9  272.5 9  C 272.5 7.432  276 6.5  279.5 6.5  C 283 6.5  286.5 7.432  286.5 9  Z " fill-rule="nonzero" fill="#117ff8" stroke="none" />
    <path d="M 272.5 9.40322580645161  C 272.5 7.77741935483871  275.58 6.5  279.5 6.5  C 283.42 6.5  286.5 7.77741935483871  286.5 9.40322580645161  C 286.5 9.40322580645161  286.5 33.5967741935484  286.5 33.5967741935484  C 286.5 35.2225806451613  283.42 36.5  279.5 36.5  C 275.58 36.5  272.5 35.2225806451613  272.5 33.5967741935484  C 272.5 33.5967741935484  272.5 9.40322580645161  272.5 9.40322580645161  Z " stroke-width="1" stroke="#ffffff" fill="none" />
    <path d="M 286.5 9  C 286.5 10.4  283.42 11.5  279.5 11.5  C 275.58 11.5  272.5 10.4  272.5 9  " stroke-width="1" stroke="#ffffff" fill="none" />
  </g>
</svg>