<?xml version="1.0" encoding="utf-8"?>
<svg version="1.1" xmlns:xlink="http://www.w3.org/1999/xlink" width="13px" height="19px" xmlns="http://www.w3.org/2000/svg">
  <g transform="matrix(1 0 0 1 -56 -854 )">
    <path d="M 10.499 16.7982  C 9.3426 17.8776  7.8656 18.46  6.3004 18.46  C 6.159 18.46  6.0176 18.4558  5.8762 18.446  C 2.7262 18.236  0.2552 15.6572  0.127800000000001 12.4484  C 0.0830000000000011 11.2696  0.477800000000001 9.9578  0.8642 9.122  C 1.8498 7.015  5.3176 1.2638  5.4646 1.0202  C 5.64185248549022 0.723053199894  5.96280417660773 0.541553155663365  6.3088 0.542799999999998  C 6.6574 0.542799999999998  6.9724 0.720599999999997  7.153 1.0188  L 7.1642 1.0384  C 7.1642 1.0384  10.5522 7.0626  11.6862 9.0702  L 11.6876 9.073  C 12.228 10.039  12.5052 11.1156  12.4898 12.188  C 12.4898 13.9296  11.7646 15.6138  10.499 16.7982  Z M 10.4654 9.75759999999999  C 9.554 8.14479999999999  7.1936 3.95039999999999  6.2962 2.3544  C 5.361 3.9196  2.9026 8.0678  2.1326 9.71279999999999  C 1.8316 10.3652  1.49 11.4628  1.5264 12.3938  C 1.623 14.8438  3.576 16.8892  5.97 17.0488  C 7.3014 17.1384  8.5684 16.6848  9.5414 15.7762  C 10.5256 14.8564  11.0898 13.5446  11.0898 12.1782  C 11.101 11.3312  10.891 10.5206  10.4654 9.75759999999999  Z " fill-rule="nonzero" fill="#f59b00" stroke="none" transform="matrix(1 0 0 1 56 854 )" />
  </g>
</svg>