<?xml version="1.0" encoding="utf-8"?>
<svg version="1.1" xmlns:xlink="http://www.w3.org/1999/xlink" width="15px" height="44px" xmlns="http://www.w3.org/2000/svg">
  <g transform="matrix(1 0 0 1 -1585 -628 )">
    <path d="M 14.3571428571429 32.5925925925926  C 14.6298701298701 32.5925925925926  14.8181818181818 32.7538580246914  14.9220779220779 33.0763888888889  C 15.025974025974 33.3989197530864  14.9935064935065 33.695987654321  14.8246753246753 33.9675925925926  L 8.00649350649351 43.7453703703704  C 7.87662337662338 43.9151234567901  7.72727272727273 44  7.55844155844156 44  C 7.37662337662338 44  7.22077922077922 43.9151234567901  7.09090909090909 43.7453703703704  L 0.175324675324675 33.9675925925926  C 0.00649350649350648 33.695987654321  -0.025974025974026 33.3989197530864  0.0779220779220779 33.0763888888889  C 0.194805194805195 32.7538580246914  0.383116883116883 32.5925925925926  0.642857142857143 32.5925925925926  L 5 32.5925925925926  L 5 0.814814814814814  C 5.00649350649351 0.577160493827156  5.06493506493506 0.381944444444446  5.18181818181818 0.229166666666668  C 5.2987012987013 0.0763888888888911  5.44805194805195 0  5.62987012987013 0  L 9.37012987012987 0  C 9.55194805194805 0  9.7012987012987 0.0763888888888911  9.81818181818182 0.229166666666668  C 9.93506493506493 0.381944444444446  9.99350649350649 0.577160493827156  10 0.814814814814814  L 10 32.5925925925926  L 14.3571428571429 32.5925925925926  Z " fill-rule="nonzero" fill="#ffffff" stroke="none" transform="matrix(1 0 0 1 1585 628 )" />
  </g>
</svg>