<?xml version="1.0" encoding="utf-8"?>
<svg version="1.1" xmlns:xlink="http://www.w3.org/1999/xlink" width="591px" height="600px" xmlns="http://www.w3.org/2000/svg">
  <g transform="matrix(1 0 0 1 0 -1 )">
    <path d="M 1 7  A 5 5 0 0 1 6 2 L 585 2  A 5 5 0 0 1 590 7 L 590 595  A 5 5 0 0 1 585 600 L 6 600  A 5 5 0 0 1 1 595 L 1 7  Z " fill-rule="nonzero" fill="#0b196a" stroke="none" fill-opacity="0" />
    <path d="M 0.5 7  A 5.5 5.5 0 0 1 6 1.5 L 585 1.5  A 5.5 5.5 0 0 1 590.5 7 L 590.5 595  A 5.5 5.5 0 0 1 585 600.5 L 6 600.5  A 5.5 5.5 0 0 1 0.5 595 L 0.5 7  Z " stroke-width="1" stroke="#ffffff" fill="none" stroke-opacity="0.0627450980392157" />
  </g>
</svg>