<?xml version="1.0" encoding="utf-8"?>
<svg version="1.1" xmlns:xlink="http://www.w3.org/1999/xlink" width="18px" height="20px" xmlns="http://www.w3.org/2000/svg">
  <g transform="matrix(1 0 0 1 -799 -858 )">
    <path d="M 17.7043004778523 4.55991667114094  C 17.7069805100671 4.55512077315436  17.7081089503356 4.54961960805369  17.710930061745 4.54440055838926  C 17.8452147973154 4.31038966979866  17.9211026040268 4.05606679194631  17.9211026040268 3.77720027919463  C 17.9211026040268 1.3315818738255  12.3094959033557 0.679059629530203  8.99384783892618 0.679059629530203  C 5.67805871677852 0.679059629530203  0.0660288644295317 1.3315818738255  0.0660288644295317 3.77748239463087  C 0.0660288644295317 4.11799012080537  0.178450018791947 4.42281082416108  0.374658061744968 4.69716355436242  L 8.09744081610738 18.9351538684564  C 8.24667741208054 19.2106350604027  8.53358408590604 19.3209403704698  8.84672706577181 19.3209403704698  C 8.84884288859061 19.3209403704698  8.85109979060403 19.3209403704698  8.85321561342282 19.3209403704698  C 9.16381959731544 19.3209403704698  9.4504441557047 19.2172646657718  9.60264292080537 18.9461561986577  L 17.7043004778523 4.55991667114094  Z M 1.82513065234899 3.77748239463087  C 2.25478537449664 3.31637231677852  4.63170980939597 2.39753748187919  8.99384783892617 2.39753748187919  C 13.3554216375839 2.39753748187919  15.7322050147651 3.31651337449664  16.1624239677852 3.77748239463087  C 15.7319228993289 4.23873353020134  13.354998485906 5.15714519194631  8.99384783892617 5.15714519194631  C 4.63241509798658 5.15714519194631  2.25549066308725 4.23859247248322  1.82513065234899 3.77748239463087  Z M 14.8057531704698 6.21477854496644  L 8.86647482416107 16.8066279946309  L 3.12777720268456 6.20010877852349  C 4.97264068724832 6.70156069798658  7.28651335302013 6.87534095033557  8.99384781744967 6.87534095033557  C 10.6839735409396 6.87534095033557  12.9699172295302 6.70494604026846  14.8057531704698 6.21477854496644  Z " fill-rule="nonzero" fill="#f59b00" stroke="none" transform="matrix(1 0 0 1 799 858 )" />
  </g>
</svg>