<?xml version="1.0" encoding="utf-8"?>
<svg version="1.1" xmlns:xlink="http://www.w3.org/1999/xlink" width="22px" height="22px" xmlns="http://www.w3.org/2000/svg">
  <g transform="matrix(1 0 0 1 -1054 -17 )">
    <path d="M 21.78932 10.99256  C 21.7762050259363 11.7046283082373  21.702377435247 12.4142804673533  21.56864 13.1138  C 21.3554 14.24876  20.55092 15.01136  19.56668 15.01136  L 19.45388 15.01136  C 18.747954918988 15.0190754470128  18.1812820876897 15.5963733938979  18.18668 16.30232  C 18.1922913534722 16.4057489585596  18.2116618699614 16.5079687882829  18.24428 16.60628  C 18.26124 16.66404  18.2808 16.72084  18.30296 16.77668  C 18.7527979189694 17.8075265481792  18.4113817448759 19.0125839303931  17.48768 19.65428  L 17.41568 19.70108  C 17.40284 19.70948  17.38952 19.71752  17.37608 19.72508  L 14.93516 21.09308  C 14.9156479536743 21.103665102937  14.8956234018788 21.1132768877988  14.87516 21.12188  L 14.85116 21.13388  C 14.5508634616068 21.2644845824785  14.2266648072572 21.3311388123088  13.8992 21.3296  C 13.2303509213892 21.3331361775939  12.5888656270212 21.0643162781171  12.12236 20.585  C 11.8903551144634 20.3455136432169  11.6236525309475 20.142280853958  11.3312 19.98212  C 11.2424654512016 19.9351038295716  11.1436204467884 19.9103925784683  11.0432 19.91012  C 10.9427576685604 19.9095287629817  10.8440845975731 19.9365528139758  10.75796 19.98824  C 10.4656240799878 20.1523458667658  10.1990115924285 20.3585520673349  9.96668 20.60024  C 9.50000234637984 21.0880455970587  8.85303447729659 21.3621367075686  8.17796 21.35804  C 7.85654682203851 21.359679390093  7.53824512390097 21.2950549950142  7.24292 21.1682  L 7.2224 21.15992  L 7.14692 21.12392  C 7.13316 21.1172  7.11956 21.11  7.10612 21.10232  L 4.57892 19.69724  C 4.55824570767667 19.6854819383658  4.53821694032737 19.6726234697276  4.51892 19.65872  L 4.49492 19.64192  C 3.58130807729664 18.9959172450807  3.24810881233886 17.7964199513931  3.69764 16.77176  C 3.71844 16.71776  3.7368 16.66292  3.75272 16.60724  C 3.78576906190214 16.5085784634736  3.80554259529797 16.4059578605642  3.81152 16.30208  C 3.81658725390756 15.5965520337897  3.25030106032554 15.0196975965419  2.5448 15.01172  L 2.44292 15.01172  C 1.45136 15.01172  0.642919999999999 14.24912  0.429919999999999 13.11416  C 0.295867786502003 12.4147297741788  0.222077141352326 11.7050869865478  0.209359999999999 10.99304  C 0.221202687077265 10.2805634024842  0.295406042909934 9.57049189569585  0.431119999999999 8.87096000000001  C 0.643399999999999 7.73612000000001  1.45256 6.97340000000001  2.4464 6.97340000000001  L 2.5448 6.97340000000001  C 3.25075303767981 6.96575016681585  3.81746403409355 6.38841333921935  3.812 5.68244  C 3.79389540369084 5.51996060350196  3.75480988482526 5.36051266121545  3.69572 5.20808  C 3.25041117654019 4.18608023087032  3.58146228703327 2.9918636531179  4.4894 2.345  L 4.50848 2.3318  L 4.57808 2.28608  C 4.5914 2.27768  4.60496 2.26964  4.61888 2.26208  L 7.01336 0.911000000000001  C 7.03247095772495 0.900474436374211  7.05205123114246 0.890824444771715  7.07204 0.882080000000001  L 7.09604 0.870080000000001  C 7.39657964646034 0.737560879903456  7.72170554982031 0.669967732091352  8.05016 0.671720000000001  C 8.73384333605485 0.667084661240816  9.38789560381264 0.950466657380414  9.85208 1.45244  C 10.0967381901454 1.71316346076167  10.3797078147601 1.93507185792837  10.69124 2.11052  C 10.850131370522 2.19552441064166  11.0406833598504 2.19687075065105  11.20076 2.11412  C 11.5197621726953 1.93408613434565  11.8082526523575 1.70468699398253  12.05552 1.43444  C 12.5199951587398 0.925082191523623  13.1789218012355 0.636927193487954  13.86824 0.641720000000002  C 14.1906636457468 0.640308102707662  14.5098862606943 0.705680710402032  14.8058 0.833720000000002  L 14.8274 0.843440000000002  L 14.90048 0.878120000000002  C 14.91392 0.884920000000002  14.92712 0.892160000000002  14.94008 0.899840000000002  L 17.4218 2.28932  C 17.4415560306401 2.30034097239917  17.4607406511499 2.3123563923427  17.47928 2.32532  L 17.50328 2.34212  C 18.4156431683589 2.98900078353212  18.748568485584 4.18751188187482  18.30056 5.21228  C 18.30056 5.21348  18.27416 5.2784  18.24536 5.3768  C 18.2123185616931 5.4754584144844  18.1925845468252 5.57808336296957  18.18668 5.68196  C 18.1814142604461 6.38785315773091  18.7480108131482 6.96507339579621  19.45388 6.97292  L 19.55336 6.97292  C 20.54612 6.97292  21.3554 7.73564  21.56756 8.87048  C 21.7026720471397 9.56965658394116  21.7768702448714 10.27923707556  21.78932 10.99124  L 21.78932 10.99256  Z M 20.61032 10.93556  C 20.5987582555182 10.2982315513771  20.5315022273766 9.6631338814579  20.40932 9.03752  C 20.33984 8.66648  20.11316 8.23244  19.706 8.23244  L 19.60592 8.23244  C 18.1335562392123 8.2257614445627  16.9442865302755 7.02881625752062  16.94708 5.55644  C 16.9524429969975 5.32011904468177  16.9914344636699 5.08576618799823  17.06288 4.86044  C 17.0952980589378 4.74803827063229  17.1339989133836 4.63754452677976  17.1788 4.52948  C 17.3652211527631 4.09257777122622  17.2281189511426 3.5848432792627  16.84712 3.30116  L 16.841 3.29756  L 16.8362 3.29396  L 14.33444 1.90328  L 14.32964 1.89968  L 14.32352 1.89716  C 13.89902271407 1.73240138613571  13.4170292280706 1.84108712200429  13.10432 2.17208  C 12.713 2.60252  11.76212 3.41744  10.95872 3.41744  C 10.63472 3.41744  10.2308 3.27152  9.79472 2.9954  C 9.44048407622325 2.77046961242219  9.11600751164363 2.50179269562813  8.82896 2.19572  C 8.51336345585238 1.86661681245921  8.02973952784022 1.76172879666855  7.60616 1.93052  L 7.60016 1.93292  L 7.59524 1.93652  L 5.18132 3.29456  L 5.1764 3.29708  L 5.17028 3.30188  C 4.7906265970842 3.58651399651781  4.65422426100321 4.09349087092775  4.8398 4.5302  C 4.8841693872782 4.63841589380169  4.92282266052154 4.7488881503873  4.9556 4.86116  C 5.02723260223216 5.08644117015532  5.06622856769922 5.32082106622679  5.0714 5.55716  C 5.07386104620737 7.02991340421521  3.88398206068393 8.22687755872499  2.41124 8.23316  L 2.30936 8.23316  C 1.9046 8.23556  1.67912 8.66852  1.60964 9.03824  C 1.48746928592054 9.66317299104204  1.42013324948905 10.2975852603429  1.4084 10.93424  C 1.42010842330023 11.571333054349  1.48744433413705 12.206185818953  1.60964 12.83156  C 1.67912 13.20248  1.9046 13.63664  2.31056 13.63664  L 2.41256 13.63664  C 3.88497068511367 13.6432526148521  5.07431325961021 14.8402171157671  5.07152 16.31264  C 5.06642283873149 16.5489858830493  5.02742512221605 16.7833763035566  4.95572 17.00864  C 4.92420842564188 17.1212354814539  4.88552951595451 17.2317008442502  4.83992 17.33936  C 4.65341274093063 17.7765461940298  4.79108145481984 18.2845903988185  5.1728 18.5678  L 5.17892 18.5714  L 5.18504 18.57512  L 7.72904 19.98332  L 7.73504 19.98584  L 7.74236 19.98824  C 8.16467439846286 20.1503051491069  8.6428462214591 20.0477523536041  8.96156 19.72676  C 9.34556 19.32056  10.2794 18.55436  11.05844 18.55436  C 11.83136 18.55436  12.7604 19.30592  13.14308 19.70372  C 13.4646369994404 20.0228137704074  13.9442384901331 20.1220189457955  14.366 19.95668  L 14.37092 19.95428  L 14.37692 19.95056  L 16.83464 18.57512  L 16.84076 18.5714  L 16.84568 18.5678  C 17.2261975518772 18.2837317639546  17.3631524738864 17.7763095646754  17.17724 17.33936  C 17.1324606831431 17.2312505941294  17.0934065871816 17.1208576828784  17.06024 17.00864  C 16.9895413586491 16.7831737087503  16.9509621832237 16.5488708632345  16.94564 16.31264  C 16.9431127207594 14.8399060645968  18.1329572964808 13.6429225287738  19.60568 13.63664  L 19.71788 13.63664  C 19.96664 13.63664  20.2958 13.42628  20.408 12.83156  L 20.40908 12.83156  C 20.5298398077761 12.2064154426674  20.5971628686516 11.5721254236851  20.61032 10.93556  Z M 15.63092 12.38552  C 15.6356690524595 12.4547759156642  15.6275314232287 12.5243119574415  15.60692 12.5906  C 15.293519916176 13.5017415497844  14.6924397873415 14.2863212667168  13.89428 14.82608  C 13.1587090641947 15.3454611697038  12.2802561281724 15.6241228412577  11.3798 15.62372  C 9.48341852533 15.6136882670041  7.8026414199935 14.4005997920623  7.19576 12.60392  C 7.17832898317083 12.5462165651816  7.17022691822129 12.4860992432561  7.17176 12.42584  C 6.88239344892002 11.4708522713913  6.91844071537155 10.4467975508051  7.27424 9.51452  C 7.277353304723 9.4598945315918  7.28838862550884 9.40601144511736  7.307 9.35456  C 7.99082071706017 7.70732309549771  9.59615716722266 6.63113891464097  11.37968 6.62432  C 12.0202098114295 6.6240419375732  12.652875162539 6.76541738036922  13.23236 7.03832000000001  C 14.2522418362958 7.49868962663375  15.0604996705999 8.32743572761849  15.4952 9.35852  C 15.5188640082978 9.42135827973744  15.5310573240838 9.48793378392893  15.5312 9.55508000000001  C 15.8641817197736 10.4639045566862  15.8991090958662 11.4551527369113  15.63092 12.38516  Z M 11.41532 7.76876  C 11.4066653422078 7.76869292252558  11.3980104569715 7.76865938341063  11.3893555392429 7.76865938341063  C 9.53911326174982 7.76865938341063  8.03919553924294 9.2685771059175  8.03919553924294 11.1188193834106  C 8.03919553924294 12.9690616609038  9.53911326174982 14.4689793834106  11.3893555392429 14.4689793834106  C 11.9585188543353 14.4689793834106  12.5182986153948 14.3239724898403  13.01588 14.04764  C 14.051019743782 13.4386688662869  14.686589704313 12.327367252316  14.686589704313 11.126384267069  C 14.686589704313 9.67437686587409  13.7616750905675 8.38367617932877  12.38672 7.91696  C 12.072134270378 7.8193008780675  11.7447145976196 7.76922730736028  11.41532 7.7684  Z " fill-rule="nonzero" fill="#f59b00" stroke="none" transform="matrix(1 0 0 1 1054 17 )" />
  </g>
</svg>