<?xml version="1.0" encoding="utf-8"?>
<svg version="1.1" xmlns:xlink="http://www.w3.org/1999/xlink" width="46px" height="38px" xmlns="http://www.w3.org/2000/svg">
  <g transform="matrix(1 0 0 1 -364 -117 )">
    <path d="M 38.0138888888889 34.5539215558938  L 35 34.5539215558938  L 35 21.5147058823529  C 35.0324073928494 15.3536764705882  29.4421296150716 9.77941176470588  22.3611111111111 9.77941176470588  C 15.2800926071506 9.77941176470588  9.68981482937283 15.3536764705882  10 21.5147058823529  L 10 34.5539215558938  L 6.70833333333333 34.5539215558938  C 5.83848611111111 34.5539215558938  5.21759260715061 35.1015686147174  5.21759260715061 35.8578431499885  C 5.21759260715061 36.6141176470588  5.83848611111111 37.1617647058824  6.70833333333333 37  L 38.0138888888889 37  C 38.8837361111111 37.1963186147174  39.5046296150716 36.5104558823529  39.5046296150716 35.8578431499885  C 39.5046296150716 35.2052304176241  39.0074675634766 34.5539215940947  38.0138888888889 34.5539215558938  Z M 32 34  L 13 34  L 13 22.1666666794003  C 12.6712962817383 19.7889657117417  13.5411435039605 17.5240539470358  15.4045694444444 15.7944019735179  C 17.1435185039605 14.0654019735179  19.6278379484049 12.3872549146944  22.3611111111111 12.3872549146944  C 24.9699073928494 12.3872549146944  27.4542268372938 14.0654019735179  29.3176527777778 15.7944019735179  C 31.1810787182617 17.4158284441062  32.0509259404839 19.8965392029527  32 22.1666666794003  L 32 34  Z M 22.8582731627062 24.0091078558709  L 24.9699073928494 22.2801078558709  C 25.3425925634766 21.9554313852826  25.3425925634766 21.6314068882123  25.3425926071506 21.1991568500115  C 25.3425926071506 20.8744803794233  25.2181157698568 20.4428823529412  24.9699073928494 20.1182058823529  C 24.6735087903838 19.8586286262782  24.271284151374 19.7127724391445  23.8518518372938 19.7127724391445  C 23.4324195232137 19.7127724391445  23.0301948842039 19.8586286262782  22.7337962817383 20.1182058823529  L 17.7644120515951 24.1173333205997  C 17.1435185476345 24.6584607588465  17.1435185476345 25.5223088235294  17.7644120515951 25.9552107970473  C 18.1370972222222 26.2792352941176  18.7587361111111 26.495686299977  19.6278379484049 26.4956862617762  L 23.1064814960395 26.4956862617762  L 20.2494768372938 29.1974117647059  C 19.8767916666667 29.5220882352941  19.8767916666667 29.8461127323644  19.8767916666667 30.2783627323644  C 19.8767916666667 30.6030392029527  20.0005231627062 31.0346372294348  20.2494768372938 31.3593137382238  C 20.622162007921 31.6833382352941  21.1185786745877 31.6833382352941  21.4912638888889 31.6833382352941  C 21.9884259404839 31.6833382352941  22.3611111111111 31.5757647058824  22.7337962817383 31.3593137382238  L 27.7031805555556 27.2519607970473  C 28.3240740595161 26.8197107970473  28.5722823928494 26.1710098293888  28.5722823928494 25.5223088235294  C 28.4485508968099 24.7660343264591  27.826912007921 24.009759791188  26.585125 24.009759791188  L 22.8582731627062 24.009759791188  Z M 7.45668517062717 20.2107843264591  L 7.43581482937283 23.4705882352941  L 1.86342594048394 23.4705882352941  C 0.993578718261719 23.4705882352941  0 22.7143137382238  0 21.8491617647059  C 0 20.9846617647059  0.993578718261719 20.2107843264591  1.86342594048394 20.2107843264591  L 7.45668517062717 20.2107843264591  Z M 37.2685185039605 20.2107843264591  L 37.2901342738173 23.4705882352941  L 42.8617777777778 23.4705882352941  C 43.731625 23.4705882352941  44.7252037182617 22.7143137382238  44.7252037182617 21.8491617647059  C 44.7252037182617 20.9846617647059  43.731625 20.2107843264591  42.8617777777778 20.2107843264591  L 37.2685185039605 20.2107843264591  Z M 12.1540092738173 11.2587107970473  L 9.50347222222222 13.5510049146944  L 5.56344444444444 10.1040882352941  C 4.94851388888889 9.56622058823529  4.85757871826172 8.41681373822381  5.55599072618273 7.80527449707031  C 6.2558935039605 7.19373529411765  7.58339811903212 7.26153920295267  8.19907405951606 7.79875491469439  L 12.1540092738173 11.2587107970473  Z M 24.2252823928494 7.49885294117647  L 20.4984305555556 7.48059802648208  L 20.4984305555556 2.60653920295267  C 20.4984305555556 1.84570096765855  21.3630601706272 0.976637229434743  22.3521666666667 0.97663726763557  C 23.3405277777778 0.97663726763557  24.2252823928494 1.84570100585938  24.2252823928494 2.60653920295267  L 24.2252823928494 7.49885294117647  Z M 35.9656111111111 13.5503529411765  L 39.9056388888889 10.1040882352941  C 40.5205694444444 9.56622058823529  40.61225 8.41681373822381  39.9130926071506 7.80527449707031  C 39.2139352143012 7.19373529411765  37.8856852143012 7.26153920295267  37.2707546150716 7.79875491469439  L 33.3150740595161 11.2587107970473  L 35.9656111111111 13.5510049146944  Z " fill-rule="nonzero" fill="#d9001b" stroke="none" transform="matrix(1 0 0 1 364 117 )" />
  </g>
</svg>