<?xml version="1.0" encoding="utf-8"?>
<svg version="1.1" xmlns:xlink="http://www.w3.org/1999/xlink" width="6px" height="6px" xmlns="http://www.w3.org/2000/svg">
  <g transform="matrix(1 0 0 1 -1519 -236 )">
    <path d="M 5.556433703125 1.1214976328125  C 5.61625518359375 0.851278830078124  5.44562885546875 0.58374222265625  5.17543205273437 0.52392078515625  C 4.90505935742188 0.464165304687501  4.63763268554688 0.634747654296875  4.57785520507812 0.904966435546877  C 4.100338953125 3.06278143554688  2.1223840078125 3.86736992578125  1.29416154492187 4.11314129296875  C 1.02882343359375 4.19189190429688  0.877544021484374 4.47083877734375  0.956294611328124 4.73615488867188  C 1.02093078320312 4.9539392265625  1.22037956054687 5.0948856640625  1.436515015625 5.0948856640625  C 1.48373900390625 5.0948856640625  1.53173245507812 5.08813624023438  1.57930820703125 5.07404380078125  C 2.21575469335937 4.88514786914063  3.14921980664062 4.5054872734375  3.98175134765625 3.76929441992188  C 4.797464296875 3.04800744726563  5.32726109960937 2.1571714375  5.556433703125 1.1214976328125  Z " fill-rule="nonzero" fill="#ffffff" stroke="none" transform="matrix(1 0 0 1 1519 236 )" />
  </g>
</svg>