<?xml version="1.0" encoding="utf-8"?>
<svg version="1.1" xmlns:xlink="http://www.w3.org/1999/xlink" width="30px" height="61px" xmlns="http://www.w3.org/2000/svg">
  <defs>
    <radialGradient cx="1083" cy="623.000000000001" r="37.0000000000011" gradientTransform="matrix(3.07261723571926E-14 -0.999999999999997 1 3.07261723571927E-14 459.999999999965 1705.99999999998 )" gradientUnits="userSpaceOnUse" id="RadialGradient407">
      <stop id="Stop408" stop-color="#80ffff" offset="0" />
      <stop id="Stop409" stop-color="#ffffff" offset="1" />
    </radialGradient>
  </defs>
  <g transform="matrix(1 0 0 1 -1068 -623 )">
    <path d="M 1097.5 629  C 1097.5 629  1097.5 678  1097.5 678  C 1097.5 681.248  1090.7 683.5  1083 683.5  C 1075.3 683.5  1068.5 681.248  1068.5 678  C 1068.5 678  1068.5 629  1068.5 629  C 1068.5 625.752  1075.3 623.5  1083 623.5  C 1090.7 623.5  1097.5 625.752  1097.5 629  Z " fill-rule="nonzero" fill="url(#RadialGradient407)" stroke="none" />
    <path d="M 1068.5 629.401639344262  C 1068.5 626.096721311475  1074.88 623.5  1083 623.5  C 1091.12 623.5  1097.5 626.096721311475  1097.5 629.401639344262  C 1097.5 629.401639344262  1097.5 677.598360655738  1097.5 677.598360655738  C 1097.5 680.903278688525  1091.12 683.5  1083 683.5  C 1074.88 683.5  1068.5 680.903278688525  1068.5 677.598360655738  C 1068.5 677.598360655738  1068.5 629.401639344262  1068.5 629.401639344262  Z " stroke-width="1" stroke="#ffffff" fill="none" />
    <path d="M 1097.5 629  C 1097.5 632.08  1091.12 634.5  1083 634.5  C 1074.88 634.5  1068.5 632.08  1068.5 629  " stroke-width="1" stroke="#ffffff" fill="none" />
  </g>
</svg>