<?xml version="1.0" encoding="utf-8"?>
<svg version="1.1" xmlns:xlink="http://www.w3.org/1999/xlink" width="21px" height="20px" xmlns="http://www.w3.org/2000/svg">
  <g transform="matrix(1 0 0 1 -1511 -228 )">
    <path d="M 20.1522038164062 17.3127699648438  C 20.1438274882813 16.9833892519531  20.007388 16.6857330761719  19.7677284863281 16.4743024199219  L 14.6638888886719 11.9813186679687  C 14.5638347148438 11.8934442441406  14.45311778125 11.8219047558594  14.3358492949219 11.7675136230469  C 15.1172874902344 10.5985661601563  15.57361009375 9.1947299609375  15.57361009375 7.6861567890625  C 15.57361009375 3.62612549609375  12.2705036035156 0.323040984374999  8.21047231054688 0.323040984374999  C 4.15044101757813 0.323040984374999  0.847334505859375 3.62612549609375  0.847334505859375 7.6861567890625  C 0.847334505859375 11.7462100820313  4.15041901757813 15.0493165722656  8.21045031054688 15.0493165722656  C 9.70464523632812 15.0493165722656  11.095993921875 14.6015241679687  12.2582139179687 13.8336727773438  C 12.3091094140625 13.9439280332031  12.3763178457031 14.0491267050781  12.4599711269531 14.1455753066406  L 16.9072478808594 19.277973546875  C 17.1269888867187 19.5315496289063  17.4508952949219 19.6769590371094  17.7959073730469 19.6769590371094  C 18.1211108789063 19.6769590371094  18.4406202519531 19.5471810371094  18.6723431582031 19.3209983710938  L 19.7742360820312 18.2457733789063  C 20.0233931503906 18.002332421875  20.1611297578125 17.6622669921875  20.1522038164062 17.3127699648438  Z M 8.21045031054688 14.0469941445312  C 4.70308028710937 14.0469941445312  1.84961295507813 11.1935487695312  1.84961295507813 7.6861567890625  C 1.84961295507813 4.17878678710937  4.70308030859375 1.32531943359375  8.21045031054688 1.32531943359375  C 11.7178203125 1.32531943359375  14.5712656875 4.17878678710937  14.5712656875 7.6861567890625  C 14.5712656875 11.1935487695312  11.7178203339844 14.0469941445312  8.21045031054688 14.0469941445312  Z M 13.217291671875 13.4890564199219  C 13.1341220683594 13.3931574316406  13.1000671640625 13.23825046875  13.2016822636719 13.1393175429687  L 13.6466605585938 12.7042105449219  C 13.6856401328125 12.666088390625  13.73216059375 12.6475549589844  13.7889041152344 12.6475549589844  C 13.8618066796875 12.6475549589844  13.9396339140625 12.6792574746094  14.0020496113281 12.7340663066406  L 14.8791449453125 13.5061828183594  L 13.9868139453125 14.3771223203125  L 13.217291671875 13.4890564199219  Z M 19.1503210878906 17.3383606054688  C 19.1520798847656 17.4080533398438  19.1227737578125 17.4810878183594  19.0740328007813 17.5286855488281  L 17.9723597265625 18.6036906914063  C 17.9267846210938 18.6481225703125  17.8608733085938 18.6746805664063  17.7959293515625 18.6746805664063  C 17.7570377128906 18.6746805664063  17.7027125585938 18.6654468183594  17.6647223183594 18.6216085527344  L 14.6443661230469 15.1359378339844  L 15.6336513808594 14.1703525058594  L 19.1050977460938 17.2263025742187  C 19.14091146875 17.2578731757812  19.1494636679688 17.3046574433594  19.1503210878906 17.3383606054688  Z " fill-rule="nonzero" fill="#ffffff" stroke="none" transform="matrix(1 0 0 1 1511 228 )" />
  </g>
</svg>