<?xml version="1.0" encoding="utf-8"?>
<svg version="1.1" xmlns:xlink="http://www.w3.org/1999/xlink" width="19px" height="19px" xmlns="http://www.w3.org/2000/svg">
  <g transform="matrix(1 0 0 1 -1300 -18 )">
    <path d="M 11.4295932878049 2.57059788195122  L 11.4295932878049 0.638304814634147  C 11.4295932878049 0.290897525853659  11.1479639990244 0.00926829268292728  10.8005574146341 0.00926829268292728  L 8.18095182243902 0.00926829268292728  C 7.8335452195122 0.00926829268292728  7.55191594926829 0.290897525853659  7.55191594926829 0.638304814634147  L 7.55191594926829 2.54160258439024  L 8.06768811414634 1.9228473795122  C 6.73260399219512 2.16723826243903  5.49571618926829 2.77219438829268  4.47287712195122 3.66666624878049  L 5.28283253365854 3.6513289297561  L 3.85026549170732 2.49125970243902  C 3.58028034829268 2.27262922341463  3.18417648585366 2.31426122634146  2.96554602536585 2.58424738926829  L 1.31697647317073 4.62006300390244  C 1.09834601268293 4.89004918536585  1.13997760780488 5.28615121268293  1.40996273268293 5.5047817102439  L 2.86892711414634 6.6862286995122  L 2.70810175317073 5.90448993756098  C 2.11596517756098 7.02997112  1.80160923219512 8.29065676585366  1.80160923219512 9.59629185170732  C 1.80160923219512 9.70685720780488  1.80386409658537 9.81716870536585  1.80835419512195 9.92717822341464  L 2.43686972780488 9.90150796292683  L 2.29536619902439 9.28859361756098  L 0.487695966829268 9.70592694926829  C 0.149194302439024 9.78407658146342  -0.061866483902439 10.1218404712195  0.0162847795121951 10.4603437112195  L 0.605567592195122 13.0128086419512  C 0.683715593170731 13.3513119004878  1.0214809102439 13.5623701843902  1.35998585560976 13.4842205521951  L 3.1512501902439 13.0706745229268  L 2.43082183317073 12.7037984809756  C 2.97266081170732 13.978731235122  3.84105293853659 15.0841733492683  4.93871168878049 15.9022914390244  L 4.7492505102439 15.122182524878  L 3.92489537853659 16.8123576653659  C 3.77260185170732 17.1246052595122  3.9022714204878 17.5011900604878  4.21451977463415 17.6534833834146  L 6.56900340780488 18.8018427531707  C 6.88125174341463 18.9541360760976  7.25783743414634 18.8244675453659  7.41013096097561 18.5122199512195  L 8.23862601658537 16.8135553326829  L 7.67325004195122 16.5378038839024  L 7.51297449463415 17.1460792819512  C 8.12996041951219 17.3086487873171  8.76804194243902 17.3917180107317  9.41626219902439 17.3917180107317  C 10.1150582126829 17.3917180107317  10.8019482887805 17.2951770829268  11.4631250253659 17.106703644878  L 11.2906817112195 16.5017652214634  L 10.7253057180488 16.7775167073171  L 11.5713782760976 18.5122199512195  C 11.7236717843902 18.8244675453659  12.100257475122 18.9541360760976  12.4125058292683 18.8018427531707  L 14.766989462439 17.6534833834146  C 15.0792377980488 17.5011900604878  15.2089073853659 17.1246052595122  15.0566138585366 16.8123576653659  L 14.1919460282927 15.0395287434146  L 14.0122144809756 15.8122372965854  C 15.0642653531707 14.9958360653659  15.8950185541463 13.9120052741463  16.4160826360976 12.6697273473171  L 15.6945055668293 13.0393330868293  L 17.6215233814634 13.4842205521951  C 17.9600283268293 13.5623701843902  18.2977936439024 13.3513119004878  18.375941644878 13.0128086419512  L 18.9652244390244 10.4603437112195  C 19.0433757209756 10.1218404712195  18.8323149346341 9.78407658146342  18.4938132517073 9.70592694926829  L 16.5384705336585 9.25450051804878  L 16.3969669863415 9.8674149004878  L 17.0255905131707 9.89020678146341  C 17.0291348195122 9.79245710146341  17.0309118663415 9.69447423121951  17.0309118663415 9.59629185170732  C 17.0309118663415 8.32662791804878  16.7336654302439 7.09923883609756  16.1722657385366 5.99691555804878  L 16.0076015434146 6.77123957463415  L 17.5715464858537 5.5047817102439  C 17.8415316292683 5.28615121268293  17.8831632058537 4.89004918536585  17.6645327639024 4.62006300390244  L 16.0159632117073 2.58424738926829  C 15.7973327512195 2.31426122634146  15.4012288702439 2.27262922341463  15.1312437453659 2.49125970243902  L 13.6208199678049 3.71437825170732  L 14.4370948907317 3.73531810536585  C 13.4417789453659 2.84105062926829  12.2350487765854 2.22416144682927  10.92761212 1.95452616292683  L 11.4295932878049 2.57059788195122  Z M 10.1715215229268 2.57059788195122  C 10.1715215229268 2.86903316195122  10.3812208897561 3.12639133170732  10.6735026907317 3.18666960097561  C 11.7604500195122 3.41083230536585  12.76526324 3.9245011795122  13.5962749707317 4.6711448097561  C 13.8262484868293 4.87777147804878  14.1722838458537 4.88664825951219  14.4125498936585 4.69208462634146  L 15.9229736712195 3.46896609560976  L 15.0382574858537 3.3759783902439  L 16.6868270380488 5.41179400487805  L 16.77981656 4.52707533560976  L 15.2158683365854 5.7935332  C 14.9850897395122 5.98041627317073  14.9164390321951 6.3032383404878  15.051207422439 6.56785721658537  C 15.5229458731707 7.49412862634146  15.7728368390244 8.52598830048781  15.7728368390244 9.59629185170732  C 15.7728368390244 9.67927488  15.7713379521951 9.76206064195122  15.7683434595122 9.84462300097561  C 15.7574225746341 10.1458705404878  15.9617449414634 10.412518764878  16.25546672 10.4803292273171  L 18.2108094565854 10.9317556585366  L 17.7393949882927 10.1773388595122  L 17.1501121941463 12.7298037717073  L 17.904530457561 12.2583918614634  L 15.9775093804878 11.8135043590244  C 15.6790782341463 11.7446058917073  15.3743995541463 11.9006673317073  15.2559323112195 12.1831100985366  C 14.818648497561 13.22564312  14.1218356946341 14.1347311521951  13.2409288887805 14.8183231619512  C 13.00567328 15.00088304  12.9306605014634 15.3233887063415  13.0611973414634 15.5910316595122  L 13.9258651717073 17.3638605814634  L 14.2154863053659 16.5227348263415  L 11.8610026721951 17.6710941960976  L 12.7021269629268 17.960717035122  L 11.856054404878 16.2260137912195  C 11.7223987287805 15.951974084878  11.4114561658537 15.8132430360976  11.1182383785366 15.8968267980488  C 10.5689181082927 16.0534156039024  9.99808331317073 16.1336449668293  9.41626219902439 16.1336449668293  C 8.87650463804878 16.1336449668293  8.34614946341463 16.0646002643902  7.83352558926829 15.9295284673171  C 7.54328592682927 15.8530535785366  7.23945160682927 15.9922847073171  7.1078773297561 16.2620524165854  L 6.27938227414634 17.960717035122  L 7.12050654634146 17.6710941960976  L 4.76602291317073 16.5227348263415  L 5.05564404682927 17.3638605814634  L 5.87999919707317 15.6736854409756  C 6.01255198341463 15.4019110721951  5.93298039121951 15.0742771297561  5.690538 14.8935765082927  C 4.77166826731707 14.2087150390244  4.0433593404878 13.2815956917073  3.58866820878049 12.2117218741463  C 3.46931080195122 11.9308700468293  3.16558447609756 11.7761990360976  2.86824311414634 11.8448458321951  L 1.0769787795122 12.2583918614634  L 1.83139704292683 12.7298037717073  L 1.2421142302439 10.1773388595122  L 0.770699780487805 10.9317556585366  L 2.57836999414634 10.5144223268293  C 2.87314557756098 10.4463678487805  3.07772647414634 10.1781158204878  3.0653819795122 9.87583772097561  C 3.06158568682927 9.7829314097561  3.0596842595122 9.68973696585366  3.0596842595122 9.59629185170732  C 3.0596842595122 8.4957218195122  3.32394224682927 7.43594912487805  3.82148566341463 6.49026112390244  C 3.96121214536585 6.22467923512195  3.89387703512195 5.89737882146342  3.66066030243902 5.70852236195122  L 2.20169267707317 4.52707533560976  L 2.29468219902439 5.41179400487805  L 3.94325175121951 3.3759783902439  L 3.05853556585366 3.46896609560976  L 4.49109932682927 4.62903530439024  C 4.72888471609756 4.82158890439024  5.07073104780488 4.81511570634146  5.30105473853659 4.61369798536585  C 6.15482459512195 3.86707806341463  7.18441190634146 3.36351064585366  8.29421553073171 3.16035778926829  C 8.5929739404878 3.10566946829268  8.80998769560976 2.84532379414634  8.80998769560976 2.54160258439024  L 8.80998769560976 0.638304814634147  L 8.18095182243902 1.26734131804878  L 10.8005574146341 1.26734131804878  L 10.1715215229268 0.638304814634147  L 10.1715215229268 2.57059788195122  Z M 9.41626219902439 13.8085231736585  C 11.6963384770732 13.8085231736585  13.5381033287805 11.9190969609756  13.5381033287805 9.59629185170732  C 13.5381033287805 7.27348674243902  11.6963384770732 5.38406051121951  9.41626219902439 5.38406051121951  C 7.13618262146341 5.38406051121951  5.2944177697561 7.27348674243902  5.2944177697561 9.59629185170732  C 5.2944177697561 11.9190969609756  7.13618262146341 13.8085231736585  9.41626219902439 13.8085231736585  Z M 9.41626219902439 12.5504501482927  C 7.83829058536585 12.5504501482927  6.55248953463415 11.2313744439024  6.55248953463415 9.59629185170732  C 6.55248953463415 7.9612092595122  7.83829058536585 6.64213355512195  9.41626219902439 6.64213355512195  C 10.9942305131707 6.64213355512195  12.280031582439 7.9612092595122  12.280031582439 9.59629185170732  C 12.280031582439 11.2313744439024  10.9942305131707 12.5504501482927  9.41626219902439 12.5504501482927  Z " fill-rule="nonzero" fill="#f59b00" stroke="none" transform="matrix(1 0 0 1 1300 18 )" />
  </g>
</svg>