<?xml version="1.0" encoding="utf-8"?>
<svg version="1.1" xmlns:xlink="http://www.w3.org/1999/xlink" width="18px" height="18px" xmlns="http://www.w3.org/2000/svg">
  <g transform="matrix(1 0 0 1 -918 -735 )">
    <path d="M 6.50895833341797 16.87375  C 6.50895833341797 17.353125  6.12166666683594 17.740416666582  5.64229166658203 17.740416666582  C 5.16291666658203 17.740416666582  4.775625 17.353125  4.775625 16.87375  L 4.775625 9.92416666658203  C 4.775625 9.69395833316406  4.86770833341797 9.471875  5.03291666658203 9.309375  L 6.790625 7.56520833341797  C 6.953125 7.40541666683594  7.1725 7.31333333341797  7.4 7.31333333341797  L 9.975625 7.31333333341797  L 9.975625 3.84666666658203  L 5.96458333341797 3.84666666658203  L 2.2 7.09395833341797  L 2.2 16.87375  C 2.2 17.353125  1.81270833341797 17.740416666582  1.33333333341797 17.740416666582  C 0.853958333417969 17.740416666582  0.466666666835938 17.353125  0.466666666582031 16.87375  L 0.466666666582031 6.69583333341797  C 0.466666666582031 6.44395833341797  0.577708333164063 6.20291666683594  0.767291666582032 6.04041666658203  L 5.07354166658203 2.32458333341797  C 5.230625 2.18916666683594  5.43104166658203 2.11333333341797  5.63958333341797 2.11333333341797  L 10.839583333418 2.11333333341797  C 11.318958333418 2.11333333341797  11.70625 2.500625  11.70625 2.98  L 11.70625 8.18  C 11.70625 8.659375  11.318958333418 9.04666666658203  10.839583333418 9.04666666658203  L 7.7575 9.04666666658203  L 6.50895833341797 10.284375  L 6.50895833341797 16.87375  Z M 14.785625 3.70583333341797  C 14.639375 3.800625  14.474166666582 3.84666666683594  14.311666666582 3.84666666658203  C 14.03 3.84666666658203  13.75375 3.70854166658203  13.585833333418 3.45666666658203  C 13.323125 3.05583333316406  13.4341666668359 2.51958333316406  13.835 2.256875  L 16.462083333418 0.528958333417968  C 16.8629166668359 0.266249999999999  17.3991666668359 0.377291666835937  17.661875 0.778124999999999  C 17.924583333418 1.17895833341797  17.813541666582 1.71520833341797  17.412708333418 1.97791666658203  L 14.785625 3.70583333341797  Z M 17.802708333418 5.6125  C 17.8027083336719 6.091875  17.4154166668359 6.47916666658203  16.936041666582 6.47916666658203  L 14.308958333418 6.47916666658203  C 13.829583333418 6.47916666658203  13.4422916668359 6.091875  13.442291666582 5.6125  C 13.4422916663281 5.133125  13.8295833331641 4.74583333341797  14.308958333418 4.74583333341797  L 16.936041666582 4.74583333341797  C 17.415416666582 4.74583333341797  17.8027083331641 5.133125  17.802708333418 5.6125  Z M 17.659166666582 10.403541666582  C 17.49125 10.655416666582  17.2177083331641 10.7908333331641  16.936041666582 10.790833333418  C 16.7708333331641 10.790833333418  16.605625 10.7447916668359  16.456666666582 10.647291666582  L 13.829583333418 8.903125  C 13.431458333418 8.63770833341797  13.323125 8.10145833341797  13.585833333418 7.700625  C 13.85125 7.3025  14.3875 7.19416666658203  14.788333333418 7.456875  L 17.415416666582 9.20104166658203  C 17.813541666582 9.46645833316406  17.921875 10.0027083331641  17.659166666582 10.403541666582  Z " fill-rule="nonzero" fill="#f59b00" stroke="none" transform="matrix(1 0 0 1 918 735 )" />
  </g>
</svg>