<?xml version="1.0" encoding="utf-8"?>
<svg version="1.1" xmlns:xlink="http://www.w3.org/1999/xlink" width="19px" height="20px" xmlns="http://www.w3.org/2000/svg">
  <g transform="matrix(1 0 0 1 -1689 210 )">
    <path d="M 18.226625 1.074875  C 18.22525 0.769625  18.02175 0.519375  17.74675 0.43  C 17.689 0.406625  17.2985 0.4025  17.239375 0.39425  C 17.227 0.392875  16.875 0.387375  16.875 0.387375  L 16.875 0.3805  C 16.875 0.37775  17.45525 0.375  17.415375 0.375  L 1.096875 0.375  C 0.915375 0.375  0.731125 0.445125  0.590875 0.585375  C 0.31175 0.8645  0.3255 1.316875  0.604625 1.596  L 6 6.854  L 6 18.949875  C 5.875 19.009  5.881875 19.062625  5.895625 19.117625  C 5.901125 19.131375  5.8915 19.145125  5.897 19.1575  C 5.986375 19.433875  6.2325 19.637375  6.539125 19.637375  C 6.742625 19.637375  6.92 19.54525  7.045125 19.403625  C 7.050625 19.3995  7.056125 19.398125  7.06025 19.394  L 12.4805 13.972375  C 12.484625 13.96825  12.49975 13.96275  12.503875 13.958625  C 12.6455 13.832125  12.751375 13.65475  12.751375 13.449875  L 12.751375 6.854  L 17.99425 1.597375  C 17.998375 1.59325  17.992875 1.58775  17.997 1.583625  C 18.138625 1.457125  18.226625 1.27975  18.226625 1.074875  Z M 11.375 7.25  L 11.375 13.081375  L 7.25 17.206375  L 7.25 7.25  L 11.375 7.25  Z M 15.792875 2  L 11.667875 5.875  L 6.9035 5.875  L 2.7785 2  L 15.792875 2  Z " fill-rule="nonzero" fill="#f59b00" stroke="none" transform="matrix(1 0 0 1 1689 -210 )" />
  </g>
</svg>