<?xml version="1.0" encoding="utf-8"?>
<svg version="1.1" xmlns:xlink="http://www.w3.org/1999/xlink" width="72px" height="81px" xmlns="http://www.w3.org/2000/svg">
  <defs>
    <filter x="1592px" y="609px" width="72px" height="81px" filterUnits="userSpaceOnUse" id="filter234">
      <feOffset dx="0" dy="0" in="SourceAlpha" result="shadowOffsetInner" />
      <feGaussianBlur stdDeviation="5" in="shadowOffsetInner" result="shadowGaussian" />
      <feComposite in2="shadowGaussian" operator="atop" in="SourceAlpha" result="shadowComposite" />
      <feColorMatrix type="matrix" values="0 0 0 0 0  0 0 0 0 0  0 0 0 0 0  0 0 0 0.313725490196078 0  " in="shadowComposite" />
    </filter>
    <g id="widget235">
      <path d="M 46.2786458333333 37.291015625  C 47.2039930555556 36.1903831845238  47.6666666666667 34.6529017857143  47.6666666666667 32.6785714285714  C 47.6666666666667 30.7723214285714  47.3055555555556 28.6958705357143  46.5833333333333 26.44921875  C 45.8611111111111 24.2025669642857  45.1388888888889 22.0013020833333  44.4166666666667 19.8454241071429  C 43.6944444444444 17.6895461309524  43.3333333333333 15.7946428571429  43.3333333333333 14.1607142857143  L 43.3333333333333 13  L 21.6666666666667 13  L 21.6666666666667 14.1607142857143  C 21.6666666666667 14.9549851190476  21.53125 15.7208891369048  21.2604166666667 16.4584263392857  C 20.9895833333333 17.1959635416667  20.5720486111111 17.9051339285714  20.0078125 18.5859375  C 19.4435763888889 19.2667410714286  18.9244791666667 19.8340773809524  18.4505208333333 20.2879464285714  C 17.9765625 20.7418154761905  17.3671875 21.2978050595238  16.6223958333333 21.9559151785714  C 16.4192708333333 22.137462797619  16.2612847222222 22.2736235119048  16.1484375 22.3643973214286  C 14.3203125 23.9983258928571  12.6840277777778 25.2691592261905  11.2395833333333 26.1768973214286  C 10.7430555555556 26.4946056547619  9.97569444444444 26.92578125  8.9375 27.4704241071429  C 8.86979166666667 27.4931175595238  8.61588541666667 27.6122581845238  8.17578125 27.8278459821429  C 7.73567708333333 28.0434337797619  7.32942708333333 28.2533482142857  6.95703125 28.4575892857143  C 6.58463541666667 28.6618303571429  6.18402777777778 28.8887648809524  5.75520833333333 29.1383928571429  C 5.32638888888889 29.3880208333333  4.98220486111111 29.6319754464286  4.72265625 29.8702566964286  C 4.46310763888889 30.1085379464286  4.33333333333333 30.3184523809524  4.33333333333333 30.5  C 4.33333333333333 32.1112351190476  4.67751736111111 33.4217819940476  5.36588541666667 34.431640625  C 6.05425347222222 35.4414992559524  7.15451388888889 35.9464285714286  8.66666666666667 35.9464285714286  C 9.63715277777778 35.9464285714286  10.5907118055556 35.7762276785714  11.52734375 35.4358258928571  C 12.4639756944444 35.0954241071429  13.2313368055556 34.7209821428571  13.8294270833333 34.3125  C 14.4275173611111 33.9040178571429  15.0481770833333 33.5295758928571  15.69140625 33.1891741071429  C 16.3346354166667 32.8487723214286  16.8819444444444 32.6785714285714  18 32.6785714285714  L 18 52.2857142857143  C 17.3333333333333 53.4203869047619  17.7677951388889 54.4302455357143  18.63671875 55.3152901785714  C 19.5056423611111 56.2003348214286  20.515625 56.6428571428571  21.6666666666667 56.6428571428571  C 22.8402777777778 56.6428571428571  23.8559027777778 56.211681547619  24.7135416666667 55.3493303571429  C 25.5711805555556 54.4869791666667  26 53.4657738095238  26 52.2857142857143  L 26 41.0184151785714  C 27.0381944444444 41.8126860119048  28.2005208333333 42.2098214285714  29.4869791666667 42.2098214285714  C 31.0442708333333 42.2098214285714  32.3871527777778 41.6084449404762  33.515625 40.4056919642857  C 34.2378472222222 40.8141741071429  35.0164930555556 41.0184151785714  35.8515625 41.0184151785714  C 36.6866319444444 41.0184151785714  37.5160590277778 40.8198474702381  38.33984375 40.4227120535714  C 39.1636284722222 40.0255766369048  39.7560763888889 39.4866071428571  40.1171875 38.8058035714286  C 40.6588541666667 38.8965773809524  41.2907986111111 38.9419642857143  42.0130208333333 38.9419642857143  C 43.9314236111111 38.9419642857143  45.3532986111111 38.3916480654762  46.2786458333333 37.291015625  Z M 42.6901041666667 8.06752232142857  C 43.1189236111111 7.63634672619047  43.3333333333333 7.12574404761905  43.3333333333333 6.53571428571428  C 43.3333333333333 5.94568452380952  43.1189236111111 5.43508184523809  42.6901041666667 5.00390625  C 42.2612847222222 4.5727306547619  41.7534722222222 4.35714285714286  41.1666666666667 4.35714285714286  C 40.5798611111111 4.35714285714286  40.0720486111111 4.5727306547619  39.6432291666667 5.00390625  C 39.2144097222222 5.43508184523809  39 5.94568452380952  39 6.53571428571428  C 39 7.12574404761905  39.2144097222222 7.63634672619047  39.6432291666667 8.06752232142857  C 40.0720486111111 8.49869791666666  40.5798611111111 8.71428571428572  41.1666666666667 8.71428571428572  C 41.7534722222222 8.71428571428572  42.2612847222222 8.49869791666666  42.6901041666667 8.06752232142857  Z M 49.6640625 21.7516741071429  C 51.2213541666667 26.0634300595238  52 29.6603422619048  52 32.5424107142857  C 52 35.7648809523809  51.1254340277778 38.3746279761905  49.3763020833333 40.3716517857143  C 47.6271701388889 42.3686755952381  45.1727430555556 43.3558407738095  42.0130208333333 43.3331473214286  L 41.84375 43.2991071428571  C 40.1284722222222 44.6834077380952  38.1197916666667 45.3755580357143  35.8177083333333 45.3755580357143  C 35.3211805555556 45.3755580357143  34.8359375 45.3415178571429  34.3619791666667 45.2734375  C 33.1432291666667 45.9542410714286  31.8003472222222 46.3740699404762  30.3333333333333 46.5329241071429  L 30.3333333333333 52.2857142857143  C 30.3333333333333 54.6685267857143  29.4756944444444 56.7166108630952  27.7604166666667 58.4299665178571  C 26.0451388888889 60.143322172619  24.0026041666667 61  21.6328125 61  C 19.3081597222222 61  17.2881944444444 60.1376488095238  15.5729166666667 58.4129464285714  C 13.8576388888889 56.688244047619  13 54.6458333333333  13 52.2857142857143  L 13 39.5546875  C 11.78125 40.0539434523809  10.3368055555556 40.3035714285714  8.66666666666667 40.3035714285714  C 5.93576388888889 40.3035714285714  3.80859375 39.3788132440476  2.28515625 37.529296875  C 0.76171875 35.6797805059524  0 33.336681547619  0 30.5  C 0 29.6376488095238  0.197482638888889 28.8490513392857  0.592447916666667 28.1342075892857  C 0.987413194444445 27.4193638392857  1.54600694444444 26.7952938988095  2.26822916666667 26.2619977678571  C 2.99045138888889 25.7287016369048  3.70138888888889 25.2691592261905  4.40104166666667 24.8833705357143  C 5.10069444444444 24.4975818452381  5.91319444444444 24.0777529761905  6.83854166666667 23.6238839285714  C 7.76388888888889 23.1700148809524  8.46354166666667 22.7955729166667  8.9375 22.5005580357143  C 10.1788194444444 21.7062872023809  11.6345486111111 20.5716145833333  13.3046875 19.0965401785714  C 13.3723958333333 19.0511532738095  13.5642361111111 18.8922991071429  13.8802083333333 18.6199776785714  C 14.1961805555556 18.34765625  14.4388020833333 18.1320684523809  14.6080729166667 17.9732142857143  C 14.77734375 17.8143601190476  15.0199652777778 17.5817522321429  15.3359375 17.275390625  C 15.6519097222222 16.9690290178571  15.9058159722222 16.6967075892857  16.09765625 16.4584263392857  C 16.2894965277778 16.2201450892857  16.4926215277778 15.96484375  16.70703125 15.6925223214286  C 16.9214409722222 15.4202008928571  17.0794270833333 15.1535528273809  17.1809895833333 14.892578125  C 17.2825520833333 14.631603422619  17.3333333333333 14.3876488095238  17.3333333333333 14.1607142857143  L 17.3333333333333 4.35714285714286  C 17.3333333333333 3.15438988095237  17.7565104166667 2.12751116071428  18.6028645833333 1.27650669642857  C 19.44921875 0.425502232142855  20.4704861111111 0  21.6666666666667 0  L 43.3333333333333 0  C 44.5295138888889 0  45.55078125 0.425502232142855  46.3971354166667 1.27650669642857  C 47.2434895833333 2.12751116071428  47.6666666666667 3.15438988095237  47.6666666666667 4.35714285714286  L 47.6666666666667 14.1607142857143  C 47.6666666666667 15.4996279761905  48.3324652777778 18.0299479166667  49.6640625 21.7516741071429  Z " fill-rule="nonzero" fill="#ffffff" stroke="none" transform="matrix(1 0 0 1 1602 619 )" />
    </g>
  </defs>
  <g transform="matrix(1 0 0 1 -1592 -609 )">
    <use xlink:href="#widget235" filter="url(#filter234)" />
    <use xlink:href="#widget235" />
  </g>
</svg>