<?xml version="1.0" encoding="utf-8"?>
<svg version="1.1" xmlns:xlink="http://www.w3.org/1999/xlink" width="21px" height="185px" xmlns="http://www.w3.org/2000/svg">
  <g transform="matrix(1 0 0 1 -78 -153 )">
    <path d="M 98.5 157.2  C 98.5 157.2  98.5 333.8  98.5 333.8  C 98.5 336.04  93.68 337.5  88.5 337.5  C 83.32 337.5  78.5 336.04  78.5 333.8  C 78.5 333.8  78.5 157.2  78.5 157.2  C 78.5 154.96  83.32 153.5  88.5 153.5  C 93.68 153.5  98.5 154.96  98.5 157.2  Z " fill-rule="nonzero" fill="#117ff8" stroke="none" />
    <path d="M 78.5 157.677297297297  C 78.5 155.338010810811  82.9 153.5  88.5 153.5  C 94.1 153.5  98.5 155.338010810811  98.5 157.677297297297  C 98.5 157.677297297297  98.5 333.322702702703  98.5 333.322702702703  C 98.5 335.661989189189  94.1 337.5  88.5 337.5  C 82.9 337.5  78.5 335.661989189189  78.5 333.322702702703  C 78.5 333.322702702703  78.5 157.677297297297  78.5 157.677297297297  Z " stroke-width="1" stroke="#ffffff" fill="none" />
    <path d="M 98.5 157.2  C 98.5 159.272  94.1 160.9  88.5 160.9  C 82.9 160.9  78.5 159.272  78.5 157.2  " stroke-width="1" stroke="#ffffff" fill="none" />
  </g>
</svg>