<?xml version="1.0" encoding="utf-8"?>
<svg version="1.1" xmlns:xlink="http://www.w3.org/1999/xlink" width="5px" height="8px" xmlns="http://www.w3.org/2000/svg">
  <g transform="matrix(1 0 0 1 -1360 -2378 )">
    <path d="M 4.0994 6.4172  C 3.6556 6.8344  3.0858 7.057  2.4824 7.057  C 2.4236 7.057  2.3648 7.0556  2.306 7.0514  C 1.116 6.9716  0.133199999999999 5.9538  0.0744000000000007 4.7344  C 0.0505999999999993 4.1772  0.2774 3.6354  0.3474 3.4828  C 0.6708 2.8094  1.7502 1.0006  1.7964 0.923600000000001  L 1.8342 0.867600000000001  C 1.9994 0.643600000000001  2.2752 0.519000000000001  2.5496 0.542800000000002  C 2.8142 0.566600000000001  3.0424 0.716400000000001  3.1656 0.947400000000001  C 3.2426 1.086  4.2254 2.8304  4.5614 3.4338  L 4.5642 3.4394  C 4.7672 3.8104  4.8736 4.222  4.8736 4.6294  C 4.8736 5.307  4.5908 5.9594  4.0994 6.4172  Z M 3.3392 4.1128  C 3.1544 3.7824  2.7792 3.1132  2.4628 2.5518  C 2.1422 3.1034  1.7684 3.7586  1.6144 4.0778  C 1.543 4.2332  1.466 4.502  1.473 4.67  C 1.4982 5.1866  1.9056 5.6206  2.4026 5.6542  C 2.6812 5.6738  2.9444 5.5814  3.1474 5.3924  C 3.3588 5.195  3.4764 4.9234  3.4764 4.6294  C 3.4764 4.4586  3.4274 4.2752  3.3392 4.1128  Z " fill-rule="nonzero" fill="#f59b00" stroke="none" transform="matrix(1 0 0 1 1360 2378 )" />
  </g>
</svg>