<?xml version="1.0" encoding="utf-8"?>
<svg version="1.1" xmlns:xlink="http://www.w3.org/1999/xlink" width="11px" height="26px" xmlns="http://www.w3.org/2000/svg">
  <g transform="matrix(1 0 0 1 -522 -881 )">
    <path d="M 10.5420192307692 19.51525  C 10.5420192307692 22.6775  8.36676923076923 25.25  5.69101923076923 25.25  C 3.01675 25.25  0.84001923076923 22.6775  0.84001923076923 19.517  C 0.84001923076923 17.58325  1.69294230769231 15.765  3 14.71325  L 3 3.837  C 3.07894230769231 2.13425  4.25171153846154 0.75  5.69101923076923 0.75  C 7.13032692307692 0.75  8.30309615384615 2.13425  8.30309615384615 3.837  L 8.30309615384615 14.7115  C 9.68909615384615 15.76325  10.5420192307692 17.58325  10.5420192307692 19.51525  Z M 7.55678846153846 3.837  C 7.55678846153846 2.62075  6.72015384615385 1.632  5.69101923076923 1.632  C 4.66188461538461 1.632  3.82525 2.62075  4 3.837  L 4 15.212  L 3.64015384615385 15.33975  C 2.35484615384615 16.2235  1.58632692307692 17.78625  1.58632692307692 19.517  C 1.58632692307692 22.19275  3.42692307692308 24.368  5.69101923076923 24.368  C 7.95511538461538 24.368  9.79571153846154 22.19275  9.79571153846154 19.517  C 9.79571153846154 17.78625  9.02867307692308 16.22525  7.74188461538462 15.33975  L 7.55678846153846 15.212  L 7.55678846153846 3.837  Z " fill-rule="nonzero" fill="#e2a34a" stroke="none" transform="matrix(1 0 0 1 522 881 )" />
  </g>
</svg>