<?xml version="1.0" encoding="utf-8"?>
<svg version="1.1" xmlns:xlink="http://www.w3.org/1999/xlink" width="386px" height="165px" xmlns="http://www.w3.org/2000/svg">
  <g transform="matrix(1 0 0 1 -1002 -1024 )">
    <path d="M 380.549132947977 164  L 1.11271676300578 164  C -6.14772855397955 128.466666666667  32.6687974075148 77.836324590525  89.0173410404624 37.0952380952381  C 165.912367417107 -18.501352671599  157.382061412721 7.28290967530579  243.684971098266 11.7142857142857  C 296.841821627029 14.4437185294604  298.262114312856 -10.5924005248784  338.265895953757 37.0952380952381  C 373.293832427792 78.8512798409084  392.16809172467 128.466666666667  380.549132947977 164  Z " fill-rule="nonzero" fill="#c280ff" stroke="none" fill-opacity="0.290196078431373" transform="matrix(1 0 0 1 1002 1024 )" />
    <path d="M 1.11271676300578 164  C -6.14772855397955 128.466666666667  32.6687974075148 77.836324590525  89.0173410404624 37.0952380952381  C 165.912367417107 -18.501352671599  157.382061412721 7.28290967530579  243.684971098266 11.7142857142857  C 296.841821627029 14.4437185294604  298.262114312856 -10.5924005248784  338.265895953757 37.0952380952381  C 373.293832427792 78.8512798409084  392.16809172467 128.466666666667  380.549132947977 164  " stroke-width="1" stroke="#c280ff" fill="none" transform="matrix(1 0 0 1 1002 1024 )" />
  </g>
</svg>