<?xml version="1.0" encoding="utf-8"?>
<svg version="1.1" xmlns:xlink="http://www.w3.org/1999/xlink" width="356px" height="28px" xmlns="http://www.w3.org/2000/svg">
  <g transform="matrix(1 0 0 1 -1470 -986 )">
    <path d="M 350.895953757225 27  L 1.02601156069364 27  C -5.66868477055257 21.15  30.1231768303059 12.8145168533181  82.0809248554913 6.10714285714286  C 152.984130994995 -3.04595440325106  145.118524159781 1.19901561727595  224.696531791908 1.92857142857143  C 273.711290071676 2.3779292700941  275.020910600166 -1.74387081812022  311.907514450867 6.10714285714286  C 344.206001329522 12.9816131445398  361.609539122747 21.15  350.895953757225 27  Z " fill-rule="nonzero" fill="#70b603" stroke="none" fill-opacity="0.27843137254902" transform="matrix(1 0 0 1 1470 986 )" />
    <path d="M 1.02601156069364 27  C -5.66868477055257 21.15  30.1231768303059 12.8145168533181  82.0809248554913 6.10714285714286  C 152.984130994995 -3.04595440325106  145.118524159781 1.19901561727595  224.696531791908 1.92857142857143  C 273.711290071676 2.3779292700941  275.020910600166 -1.74387081812022  311.907514450867 6.10714285714286  C 344.206001329522 12.9816131445398  361.609539122747 21.15  350.895953757225 27  " stroke-width="1" stroke="#70b603" fill="none" transform="matrix(1 0 0 1 1470 986 )" />
  </g>
</svg>