<?xml version="1.0" encoding="utf-8"?>
<svg version="1.1" xmlns:xlink="http://www.w3.org/1999/xlink" width="370px" height="43px" xmlns="http://www.w3.org/2000/svg">
  <g transform="matrix(1 0 0 1 -1459 -1024 )">
    <path d="M 364.734104046243 42  L 1.06647398843931 42  C -5.89223853615183 32.9  31.31113309967 19.9336928829393  85.3179190751445 9.5  C 159.017307991981 -4.73815129394609  150.841508211153 1.86513540465148  233.557803468208 3  C 284.505538130841 3.69900108681304  285.866805666088 -2.71268793929812  324.208092485549 9.5  C 357.780322508715 20.1936204470619  375.870197003645 32.9  364.734104046243 42  Z " fill-rule="nonzero" fill="#02a7f0" stroke="none" fill-opacity="0.533333333333333" transform="matrix(1 0 0 1 1459 1024 )" />
    <path d="M 1.06647398843931 42  C -5.89223853615183 32.9  31.31113309967 19.9336928829393  85.3179190751445 9.5  C 159.017307991981 -4.73815129394609  150.841508211153 1.86513540465148  233.557803468208 3  C 284.505538130841 3.69900108681304  285.866805666088 -2.71268793929812  324.208092485549 9.5  C 357.780322508715 20.1936204470619  375.870197003645 32.9  364.734104046243 42  " stroke-width="1" stroke="#02a7f0" fill="none" transform="matrix(1 0 0 1 1459 1024 )" />
  </g>
</svg>