<?xml version="1.0" encoding="utf-8"?>
<svg version="1.1" xmlns:xlink="http://www.w3.org/1999/xlink" width="497px" height="436px" xmlns="http://www.w3.org/2000/svg">
  <g transform="matrix(1 0 0 1 -13 -26 )">
    <path d="M 14 32  A 5 5 0 0 1 19 27 L 504 27  A 5 5 0 0 1 509 32 L 509 456  A 5 5 0 0 1 504 461 L 19 461  A 5 5 0 0 1 14 456 L 14 32  Z " fill-rule="nonzero" fill="#0b196a" stroke="none" fill-opacity="0" />
    <path d="M 13.5 32  A 5.5 5.5 0 0 1 19 26.5 L 504 26.5  A 5.5 5.5 0 0 1 509.5 32 L 509.5 456  A 5.5 5.5 0 0 1 504 461.5 L 19 461.5  A 5.5 5.5 0 0 1 13.5 456 L 13.5 32  Z " stroke-width="1" stroke="#ffffff" fill="none" stroke-opacity="0.0627450980392157" />
  </g>
</svg>