<?xml version="1.0" encoding="utf-8"?>
<svg version="1.1" xmlns:xlink="http://www.w3.org/1999/xlink" width="19px" height="16px" xmlns="http://www.w3.org/2000/svg">
  <g transform="matrix(1 0 0 1 -743 -1216 )">
    <path d="M 6.87056712971897 14.9988888888889  C 6.87056712971897 15.425  6.46175925943793 15.769259259184  5.95575231472548 15.769259259184  C 5.44974537028103 15.769259259184  5.0409375 15.425  5.0409375 14.9988888888889  L 5.0409375 8.82148148140625  C 5.0409375 8.61685185170139  5.13813657416341 8.41944444444444  5.31252314805881 8.275  L 7.16788194444444 6.72462962970486  C 7.33940972222222 6.58259259274305  7.57097222222222 6.50074074081597  7.81111111111111 6.50074074081597  L 10.5298263888889 6.50074074081597  L 10.5298263888889 3.41925925918403  L 6.29594907416341 3.41925925918403  L 2.32222222222222 6.30574074081597  L 2.32222222222222 14.9988888888889  C 2.32222222222222 15.425  1.91341435194119 15.769259259184  1.40740740749675 15.769259259184  C 0.901400463052301 15.769259259184  0.492592592771267 15.425  0.492592592503255 14.9988888888889  L 0.492592592503255 5.95185185192708  C 0.492592592503255 5.72796296303819  0.609803240562066 5.51370370385417  0.809918981392144 5.36925925918403  L 5.35540509250326 2.06629629637153  C 5.52121527777778 1.94592592607639  5.73276620361437 1.87851851859375  5.95289351860786 1.87851851859375  L 11.4417824074967 1.87851851859375  C 11.9477893519412 1.87851851859375  12.3565972222222 2.22277777777778  12.3565972222222 2.64888888888889  L 12.3565972222222 7.27111111111111  C 12.3565972222222 7.69722222222222  11.9477893519412 8.04148148140625  11.4417824074967 8.04148148140625  L 8.18847222222222 8.04148148140625  L 6.87056712971897 9.14166666666667  L 6.87056712971897 14.9988888888889  Z M 15.6070486111111 3.29407407414931  C 15.4526736111111 3.37833333333333  15.2782870369477 3.41925925940972  15.1067592591699 3.41925925918403  C 14.8094444444444 3.41925925918403  14.5178472222222 3.29648148140625  14.3406018519412 3.07259259251736  C 14.0632986111111 2.71629629614583  14.1805092594379 2.23962962947917  14.6036111111111 2.00611111111111  L 17.3766435186079 0.470185185260416  C 17.799745370549 0.236666666666666  18.3657870372157 0.335370370520833  18.6430902777778 0.691666666666666  C 18.9203935186079 1.04796296303819  18.803182870281 1.52462962970486  18.3800810186079 1.75814814807292  L 15.6070486111111 3.29407407414931  Z M 18.7917476852745 4.98888888888889  C 18.7917476855425 5.415  18.3829398149935 5.75925925918403  17.876932870281 5.75925925918403  L 15.1039004630523 5.75925925918403  C 14.5978935186079 5.75925925918403  14.1890856483268 5.415  14.1890856480588 4.98888888888889  C 14.1890856477908 4.56277777777778  14.5978935183398 4.21851851859375  15.1039004630523 4.21851851859375  L 17.876932870281 4.21851851859375  C 18.3829398147255 4.21851851859375  18.7917476850065 4.56277777777778  18.7917476852745 4.98888888888889  Z M 18.6402314813921 9.24759259251736  C 18.4629861111111 9.47148148140625  18.1742476850065 9.59185185170139  17.876932870281 9.59185185192708  C 17.7025462961176 9.59185185192708  17.5281597222222 9.55092592607639  17.3709259258366 9.46425925918403  L 14.5978935186079 7.91388888888889  C 14.1776504630523 7.67796296303819  14.0632986111111 7.20129629637153  14.3406018519412 6.845  C 14.6207638888889 6.49111111111111  15.1868055555556 6.39481481473958  15.6099074074967 6.62833333333333  L 18.3829398147255 8.17870370362847  C 18.803182870281 8.41462962947917  18.9175347222222 8.89129629614583  18.6402314813921 9.24759259251736  Z " fill-rule="nonzero" fill="#f59b00" stroke="none" transform="matrix(1 0 0 1 743 1216 )" />
  </g>
</svg>