<?xml version="1.0" encoding="utf-8"?>
<svg version="1.1" xmlns:xlink="http://www.w3.org/1999/xlink" width="20px" height="14px" xmlns="http://www.w3.org/2000/svg">
  <g transform="matrix(1 0 0 1 -812 -1045 )">
    <path d="M 19.1859210526316 0.7524125  C 19.1844736842105 0.5387375  18.9702631578947 0.3635625  18.6807894736842 0.301  C 18.62 0.2846375  18.2089473684211 0.28175  18.1467105263158 0.275975  C 18.1336842105263 0.2750125  17.7631578947368 0.2711625  17.7631578947368 0.2711625  L 17.7631578947368 0.26635  C 17.7631578947368 0.264425  18.3739473684211 0.2625  18.3319736842105 0.2625  L 1.15460526315789 0.2625  C 0.963552631578947 0.2625  0.769605263157894 0.3115875  0.621973684210526 0.4097625  C 0.328157894736842 0.60515  0.342631578947368 0.9218125  0.636447368421053 1.1172  L 6.18421052631579 4.7978  L 6.18421052631579 13.2649125  C 6.18421052631579 13.3063  6.19144736842105 13.3438375  6.20592105263158 13.3823375  C 6.21171052631579 13.3919625  6.20157894736842 13.4015875  6.20736842105263 13.41025  C 6.30144736842105 13.6037125  6.56052631578947 13.7461625  6.88328947368421 13.7461625  C 7.0975 13.7461625  7.28421052631579 13.681675  7.41592105263158 13.5825375  C 7.42171052631579 13.57965  7.4275 13.5786875  7.43184210526316 13.5758  L 13.1373684210526 9.7806625  C 13.1417105263158 9.777775  13.1576315789474 9.773925  13.1619736842105 9.7710375  C 13.3110526315789 9.6824875  13.4225 9.558325  13.4225 9.4149125  L 13.4225 4.7978  L 18.9413157894737 1.1181625  C 18.9456578947368 1.115275  18.9398684210526 1.111425  18.9442105263158 1.1085375  C 19.0932894736842 1.0199875  19.1859210526316 0.895825  19.1859210526316 0.7524125  Z M 11.9736842105263 5.075  L 11.9736842105263 9.1569625  L 7.63157894736842 12.0444625  L 7.63157894736842 5.075  L 11.9736842105263 5.075  Z M 16.6240789473684 1.225  L 12.2819736842105 4.1125  L 7.26684210526316 4.1125  L 2.92473684210526 1.225  L 16.6240789473684 1.225  Z " fill-rule="nonzero" fill="#f59b00" stroke="none" transform="matrix(1 0 0 1 812 1045 )" />
  </g>
</svg>