<?xml version="1.0" encoding="utf-8"?>
<svg version="1.1" xmlns:xlink="http://www.w3.org/1999/xlink" width="20px" height="19px" xmlns="http://www.w3.org/2000/svg">
  <g transform="matrix(1 0 0 1 -953 -882 )">
    <path d="M 17.4726213592233 15.875145631068  L 17.3545631067961 15.875145631068  C 17.3545631067961 16.7015533980583  16.646213592233 17.4099029126214  15.8198058252427 17.4099029126214  L 3.0695145631068 17.4099029126214  C 2.2431067961165 17.4099029126214  1.5347572815534 16.7015533980583  1.5347572815534 15.875145631068  L 1.5347572815534 9.73611650485437  L 0 9.73611650485437  L 0 15.875145631068  C 0 17.5279611650485  1.41669902912621 18.9446601941748  3.0695145631068 19  L 15.9378640776699 19  C 17.5906796116505 18.9446601941748  19.0073786407767 17.5279611650485  19.0073786407767 15.875145631068  L 19.0073786407767 9.73611650485437  L 17.4726213592233 9.73611650485437  L 17.4726213592233 15.875145631068  Z M 18.8893203883495 3.12485436893204  C 18.8893203883495 1.47203883495146  17.4726213592233 0.055339805825243  15.8198058252427 0  L 3.0695145631068 0  C 1.41669902912621 0.055339805825243  0 1.47203883495146  0 3.12485436893204  L 0 9.26388349514563  L 1.5347572815534 9.26388349514563  L 1.5347572815534 3.12485436893204  C 1.5347572815534 2.29844660194175  2.2431067961165 1.59009708737864  3.0695145631068 1.59009708737864  L 15.9378640776699 1.59009708737864  C 16.7642718446602 1.59009708737864  17.4726213592233 2.29844660194175  17.4726213592233 3.12485436893204  L 17.4726213592233 9.26388349514563  L 18.8893203883495 9.26388349514563  L 18.8893203883495 3.12485436893204  Z " fill-rule="nonzero" fill="#f59b00" stroke="none" transform="matrix(1 0 0 1 953 882 )" />
  </g>
</svg>