<?xml version="1.0" encoding="utf-8"?>
<svg version="1.1" xmlns:xlink="http://www.w3.org/1999/xlink" width="18px" height="18px" xmlns="http://www.w3.org/2000/svg">
  <g transform="matrix(1 0 0 1 -12 -20 )">
    <path d="M 8.9676123046875 0.2714291015625  C 4.3257111328125 0.2714291015625  0.550079296875 4.047022265625  0.550079296875 8.6889234375  C 0.550079296875 13.3301671875  4.3256724609375 17.1064564453125  8.9676123046875 17.1064564453125  C 13.6088560546875 17.1064564453125  17.385106640625 13.3301865234375  17.385106640625 8.6889234375  C 17.385106640625 4.047022265625  13.608875390625 0.2714291015625  8.9676123046875 0.2714291015625  Z M 8.9676123046875 2.6763943359375  C 9.6318017578125 2.6763943359375  10.1701529296875 3.214803515625  10.1701529296875 3.8789349609375  C 10.1701529296875 4.5429890625  9.63174375 5.0814755859375  8.9676123046875 5.0814755859375  C 8.3034228515625 5.0814755859375  7.7650716796875 4.543027734375  7.7650716796875 3.8789349609375  C 7.7650716796875 3.2147841796875  8.303403515625 2.6763943359375  8.9676123046875 2.6763943359375  Z M 11.372596875 13.4989119140625  L 6.5626083984375 13.4989119140625  L 6.5626083984375 12.2963712890625  L 7.7651296875 12.2963712890625  L 7.7651296875 7.4863828125  L 6.5626083984375 7.4863828125  L 6.5626083984375 6.2838615234375  L 10.1701529296875 6.2838615234375  L 10.1701529296875 12.296351953125  L 11.37267421875 12.296351953125  L 11.3726935546875 13.498892578125  Z " fill-rule="nonzero" fill="#f59b00" stroke="none" transform="matrix(1 0 0 1 12 20 )" />
  </g>
</svg>