<?xml version="1.0" encoding="utf-8"?>
<svg version="1.1" xmlns:xlink="http://www.w3.org/1999/xlink" width="18px" height="16px" xmlns="http://www.w3.org/2000/svg">
  <g transform="matrix(1 0 0 1 -33 -880 )">
    <path d="M 6.50895833341797 14.9988888888889  C 6.50895833341797 15.425  6.12166666683594 15.769259259184  5.64229166658203 15.769259259184  C 5.16291666658203 15.769259259184  4.775625 15.425  4.775625 14.9988888888889  L 4.775625 8.82148148140625  C 4.775625 8.61685185170139  4.86770833341797 8.41944444444444  5.03291666658203 8.275  L 6.790625 6.72462962970486  C 6.953125 6.58259259274305  7.1725 6.50074074081597  7.4 6.50074074081597  L 9.975625 6.50074074081597  L 9.975625 3.41925925918403  L 5.96458333341797 3.41925925918403  L 2.2 6.30574074081597  L 2.2 14.9988888888889  C 2.2 15.425  1.81270833341797 15.769259259184  1.33333333341797 15.769259259184  C 0.853958333417969 15.769259259184  0.466666666835938 15.425  0.466666666582031 14.9988888888889  L 0.466666666582031 5.95185185192708  C 0.466666666582031 5.72796296303819  0.577708333164063 5.51370370385417  0.767291666582032 5.36925925918403  L 5.07354166658203 2.06629629637153  C 5.230625 1.94592592607639  5.43104166658203 1.87851851859375  5.63958333341797 1.87851851859375  L 10.839583333418 1.87851851859375  C 11.318958333418 1.87851851859375  11.70625 2.22277777777778  11.70625 2.64888888888889  L 11.70625 7.27111111111111  C 11.70625 7.69722222222222  11.318958333418 8.04148148140625  10.839583333418 8.04148148140625  L 7.7575 8.04148148140625  L 6.50895833341797 9.14166666666667  L 6.50895833341797 14.9988888888889  Z M 14.785625 3.29407407414931  C 14.639375 3.37833333333333  14.474166666582 3.41925925940972  14.311666666582 3.41925925918403  C 14.03 3.41925925918403  13.75375 3.29648148140625  13.585833333418 3.07259259251736  C 13.323125 2.71629629614583  13.4341666668359 2.23962962947917  13.835 2.00611111111111  L 16.462083333418 0.470185185260416  C 16.8629166668359 0.236666666666666  17.3991666668359 0.335370370520833  17.661875 0.691666666666666  C 17.924583333418 1.04796296303819  17.813541666582 1.52462962970486  17.412708333418 1.75814814807292  L 14.785625 3.29407407414931  Z M 17.802708333418 4.98888888888889  C 17.8027083336719 5.415  17.4154166668359 5.75925925918403  16.936041666582 5.75925925918403  L 14.308958333418 5.75925925918403  C 13.829583333418 5.75925925918403  13.4422916668359 5.415  13.442291666582 4.98888888888889  C 13.4422916663281 4.56277777777778  13.8295833331641 4.21851851859375  14.308958333418 4.21851851859375  L 16.936041666582 4.21851851859375  C 17.415416666582 4.21851851859375  17.8027083331641 4.56277777777778  17.802708333418 4.98888888888889  Z M 17.659166666582 9.24759259251736  C 17.49125 9.47148148140625  17.2177083331641 9.59185185170139  16.936041666582 9.59185185192708  C 16.7708333331641 9.59185185192708  16.605625 9.55092592607639  16.456666666582 9.46425925918403  L 13.829583333418 7.91388888888889  C 13.431458333418 7.67796296303819  13.323125 7.20129629637153  13.585833333418 6.845  C 13.85125 6.49111111111111  14.3875 6.39481481473958  14.788333333418 6.62833333333333  L 17.415416666582 8.17870370362847  C 17.813541666582 8.41462962947917  17.921875 8.89129629614583  17.659166666582 9.24759259251736  Z " fill-rule="nonzero" fill="#f59b00" stroke="none" transform="matrix(1 0 0 1 33 880 )" />
  </g>
</svg>